<mxfile host="app.diagrams.net" modified="2021-09-06T13:13:52.738Z" agent="5.0 (Windows NT 10.0; Win64; x64) AppleWebKit/537.36 (KHTML, like Gecko) Chrome/93.0.4577.8 Safari/537.36" etag="JIbOmwul9FOJ047fh9cR" version="15.0.6" type="github">
  <diagram id="5MdRho4aKwa2Q7WAAL8E" name="Page-1">
    <mxGraphModel dx="2557" dy="912" grid="1" gridSize="10" guides="1" tooltips="1" connect="1" arrows="1" fold="1" page="1" pageScale="1" pageWidth="827" pageHeight="1169" math="0" shadow="0">
      <root>
        <mxCell id="0" />
        <mxCell id="1" parent="0" />
        <mxCell id="6XLEAazFI10cdfCFDWLp-1" value="" style="rounded=0;whiteSpace=wrap;html=1;" vertex="1" parent="1">
          <mxGeometry x="-200" y="10" width="1290" height="1180" as="geometry" />
        </mxCell>
        <mxCell id="6XLEAazFI10cdfCFDWLp-2" value="" style="shape=image;verticalLabelPosition=bottom;labelBackgroundColor=#ffffff;verticalAlign=top;aspect=fixed;imageAspect=0;image=data:image/png,iVBORw0KGgoAAAANSUhEUgAAAEEAAABbCAYAAAAsuui4AAAWbUlEQVR4Ae2c+VtUR9bH59945/3hnUkyMTFqtskkJk+SyWKiUd/EGJfMmEyMuLCJ+wqoIOCGGhdEBZruZmv2fZFNEEEWkUXZFJBN9p2GZun+vE/dBmQHFzrvk+TyFPdW3ao6p773VNWpU6f6T/wKl06iqf+vJz/y2fAM/cnwJAGdFq1OS355PR5xeSTfrULTN/CrsCKI/jogAHXNnfx0Koy/bXLln3t9yClr+v2BUFTdwvs7PZlr5smLRjJicx/9DkGoaef9nV68bq7g5Y2uJOZU/H5A0KEfBCsau1jrEMxiKz8+3+fJzfu/i+6gkwZE0NHU1YfyeiG7XJPZcCaSrZfiOBOSi+giepAMO1sYeGDU0aru5XRIDg5+6dy4W41T+B0S86vwSCxgn+IW+ZXNBu8WBgRB/42ViUXsc02ks6ef3n4tsrhCqlt6pIaHppdhrbhBa5fGoEAYEAToUGvYdjmWrNIGqZFNHT2EZlVTXt8hxVu7ejnml0lqYc1vF4SGNjW73FMYUouissr4cJcX50KyhxvtfaOca7lVw3FDPBhUEhrbutgpS6VjADwT7rHD5TprT0Zjcj4Ke8V1hCR4p5QTlfMbBqGrp5cDrvFYXIrGWplCWX0Hak0frV09nA7MwOxSHEe80rh9/zcLgn7ai82rwehMFKV1+nFgSNw7NX04eKdx0i+dnn7tULJB7gbtDqJFak0vLpE57HdNJCKrnOS7NSTlVWGvSuWQRyo1zZ1ihTUYDILBr7OAyiuvx+R8DPaBuRz2TOVsaA6bz8fiEpM/2OrftLKkb2NSXjmf7VPxqXUQH+0P5ItDIby3R8Ve5yjDfPoxVAzWHTo1/dyvbaOgshmf5GJW2keyxCaYZTbBLLUJYemREA66xVNQ2URhVQstHV36XjGG4dmIGgyE+NwKvrULYZG1P0uOhPKNXTTfOETxjUMM3ziI52i+tg3nS2t/vrAKRGiWOrHcmI1Wj6nTYCD4JRfwurGMOZtdmLNFzhwTJXNMFLxqIudVEwWvmCh51didOVtkvLjBheNBdyZBQA/L0ND5PEB6RhBGMzQG4FHRlLtVrD8dziq7QFYc9mfRQS8+3a/i033efLrPh0X7PfnKyo/vHEL4zj4IVbJeEkZVIkUe05RQ0j37dPqMIIxncbKU7t4+KhtaeVjfim9iHp/skrNor6dkU1hureIfW2VsuxjJg7o2SmtbaevsnkQSJqPw9OlPBcKQYUSQLa5rwzE4FQf/NILSitH090vc6HQjc4mkx4KblFfKAWUaaxyCWW7lyzIrTw56ZXJUFjlxS8bUlXyvhpOBtzkZkE6iWGfoxGrkcf0TVzJ56lOBIAhqdTpcou7yr6ORWHukcDGmgPW/RGFyMYHimrZBimNEVYx0QFZJLZvOx2LqFItrbD6H5An8dDoOp4gc0E7emJb2buy8b7HGIQyn4GwuReTx08kwjnjdolXdN3krp3nzVCCIr+x9vRCzC5FUtqrJKKrEVplKQ3MXitgcdlyO45Gk+Y2nXtHQxW5ZGpG3K2nq1HA+poSiejXlzT3scL1BaEb5+EJAt6aXM4EZHPVKoaVDjW/aQ2yUN+jo7uOYTwqn/G+h1uilcMIKpkicFgTxXfoGBnjU2E5FfRvVDe3kPmzGwTeD/HK9XSCvtJFfQu7Q2dNLn3aA0wGZBNwqo7alSypTWd8m3asa2jgRcJsLQVkSS929A3jcKKOitVcS57sVbexxSeRuRSM1TR1UNLRR0dBKdWM72aVN2Hrfoq61WyobmVPDhaAM6bmhvQsr+XWSC2qpamhH0BO0hIo+k2taEMRknXy3kp8dw1hpF8S6YyHsdU3ialQe7d16IumlLThdK6KxSy+S8XfKORWci/H5a6w+Gsha+yDW2Aez62ocG3+J5mGTWuKtvK6NC1F3ybhfL8V7+wY4E5LNTpcEjM5GsNoukNV2Qfx4Mhzn2Pu4xuQOt0mVVoEsrmR408YnqZC9rtf597FgVh8NkgZcWUwOPZrpu8m0IAgpsPFM4eVNMv5q5CaZx1cc9kUWfQe1RkNrdz8ngu7yycFAkoua6R/QkllcwT6XBN42d+evG1x5caMbLxq58dMv8Wy9kig1RN2rxSU6j7fN5VgpUmjt0JvYVKnlbHFO4R+7VFLZF4zceNVYjrVnGt4JudJYVKceYNXJWL49GkZuRTMDWi0JOeWstvVljtFVXjCS8Zefr/Iv+yAq6lqHgZvsYVoQREExGq8/HS2pumuPR7HNJQXnyBy8Eu9h7XMHVVIRB9ziuBhxl7NheSji83EIzGH9uURW2IWz0iFC0gx3uqWy6VwUt0rr2Xk1geP+GVwMz+ZMcCZGjiHE5dZwJbaIHW5prD+XIJVd4RDGKscYnGKKcIrIxSPpPicC72DrkcxJ1U2uxD7gXGg2lyMy2Xo5gTXHI1lpH8GaY5G4xd6jewbjxAxA0I/wfTro1OhQ90PBo06sPG5i55/N/Tqx9BXXAF2aAUKyKjG9nIz/zWK6+6GzVyeV6+iFRvUADj6pGJ2JJCDpLv3aIUMbJOaUc0CZwl7ZDQoqW+gZLNuh0dHRB1mljZg6xeEWX0Blo7BF6Ms2dPQgiy/E6FwMKcWNiB4p+Ox+XPUgf5PfZgCCGBpHT1u9ff0oEgq5HFtMbVvXcO2aAS3J92qx8U6nrK59sNzo8rkPGzE+H01OefNwrTqtlqYODVbyBNyu5Q3WN1ROT7tFrcEx+A6K+AI6Rlij1T19hN2ukcz4zULBkmodXXaYwUkeZgDCxCVbOjVciStht5t+WgvPLONiRB4HlDfJfNA4QSF9Y7RaLcE3Ctn0SwyyhCLicsoITi/D4lIChxTX6ekV05w+71AlQ7Hqlm6O+WVx3O82YZmlRGTexzEwGztVJsXVLUPZx9yHSo9JHhF9ShD0FfdqITGvCp+bZciulxKYVjYoAYLC5MTvlNTy8+lotslvYed/m8OqbNbah3AxTD91Tl4SGju6iblTgSLlHorkYqKyK2ho1w+qI9r1RI9PCcL4Ro5iXIqMShnFVNztUj7Y5c1nh0JYbhfOsqPh/N3CS1o7jK95VNHhiKh9JIWRz8OZZvjwDCDMkMIE2eKzS3lvpydzjPXL6LkmcuaaKNh5KVrK/SwNmoDctEm/GggLhW+CqZL55h4sMFfymukfIPwBwh+S8HvtDnHZ5by73YuXN8t5eYucV7e4SXbGHZdiAKGhGnZo/FUGxmtZpSzc7c3akzHSBq2RU7wEivkv4YOzwxhjzLTj+7Nl+BVA0FFS04GZUxybz1/jWEA2u92us9o2gKBbeoOKDq1BZcFgIOgta1rJK0VoiauPRbDSJogle91ZZuUrrfq2XEoitbCWfu1vWBIa23vYeiWJ/5y5RlpxHeXN3Rzxuin5LlU1dWOluMkq+1DSimoH5dswY4PhJAE4H36Hf58I52G9fvn9qK2PA17Z3CjSL7iEocXONwMrz3QaO8cvpJ6t509e2mAglNa1se5UFGHppXpudNDcOYAypYq7la3SnCBeFNa0s+liPOGTGFwnb8rTvzEYCGFpxSy19OHRoKFUsJx2r4oNjqF4J95Dp9NbitvUvWw5EypZjw01MhgMBN+UYlYcUtEsdpsBzQA4ht3jvze488PZRB416T1XejS9WLrG4hiYwYBhhgTDOWn4Jt1juZU39W3dZJfU4hRViK1vDu/v9GC7600cQwsJTimkvr2bfS5xv00QkvMfssYhFJ+UMr6z8WebczxZ5U1kltRKDlwn/TP41jYYx6BsTC7EcTVSuPUZRhQM1h06e/okc/umi3F4J5dIEjFyKOvW9HGrqIE98ptsPBdHzqDDp+SkMDLjLDwbDATBe0J+NV9ZByCPL5iwKRnFj1htF8LZkNvDmyoTZnzOiQYFQXztg64JfHnQH3u/TISZraSyhdS8CuTXC/l4twKjMxEUVU5kqH3OLR9R3eyDMKJb92g0mJ8Nxtb3NmtORPDRbi/EZs5XlgEs3CbjeFg+5hejKKzQn30YUXQEy8//0WAgiFkhrbieq3FFeKZUEJJeiWfKQy7FlyNPqSYwrZyg24+4El9CzJ1KaYPFUAspg4EQlFLIOxZyXhdGlK2evGWu5C0LD9608OJtC0/eMVfypqkXb5l7M2+Lm7Qx+5tTloQP0lwTd17cKJM2d+dskiGFzW7M2SSCSHeT3v1l/VVOBN4eVqWffwcYXePsS8IgvaLqZlziCjkRUcKpqIc4RpWPCWWcjCzHMfI+5yMLSC9pGARh9kcGg4EgsBCzg9mFGL52iOVrB3EfHZYejeLHM9HklOmdP4SyNPsQPMPhUMFcfWsXmr7+GTPa1a1h6UFPyZ44z1TB2DDXWM6Hu724VTgDV/9BZ67e/n6a2rqko0RPq2E+tSQU1zRj5hyP/837M1Zvu7p7WG7pxWumSmnDRZjaRwaxAfPxHp+ZgSB1Mx15lS3scE0mMa9yxnyMHhFmJAnim48XysScMv6xw4MjnjfG1jkY14vyyJJqtYavrbz1IJgpWTAmiB0pcWQ4o2ikJIysYTyp6/fq+GiPCuGaM9E1dWl9ieklQadF06+lqauXxq5emrt6pWM6WWXNnIgoJDCzUoqLdyKP8EgTvkz66U2w8JiNpg41yyy9pWnyza0ejA2vmyv5dK8PSfniq46/hENoY4dG4kGi1dXL7YednIsuJfFePS2DPAzxIhzDZnJNDcIg/8XVrfx8KpyVtkGsORrMGvsQyUz2o2MM607F8L19KKvtgyUnq5W2gTiHZ0lebAIA4e9Y39LBnfs1nPC6zrJ97ny5153Fe8aHLwbT9jhFkJBVTNmjRrQj/Brjsh6w7ngoq46GsvpoiMTHj6ci+PFMHOtORUurVOHotepoEN87hBKR9XAmGMzMntDS0U3YzXuoEnPwT8rHMzaHrefC+GKXjG+tvZBfy8P/eh5+ibnS/e7D+uFxvbtXy4nADBbucOfdrTLetXDXh21y3h0T3rNw410LGe9tlbFwq4z1pyNoUj/+muJUTFhaIaoEPR3fhLuYX4jmn9tdWHXIm6th6fgn5Up8BCbl86BWOG48lsTJEJlaEiYp1TegxcE7lfkmMhZbB9IyhZdce48WC7dUSUmab6ZkvpmHPpiLHenRYZ4U92CeuQdzjBV8bh1KVfvUeqOtKpu/bbjKCht/apqEi9CTX08FQmd3L/Y+aby5zYtlNmE06t0SJ6QuQNjhnsbLm2WjZoKRs8LYZwGO8FlYfHhqEIQzma1/Lq8ZK1hlF0x53dMdMX4qEISzlNu1XLY4J7FfmYbwJZrs6pBAuCWBIHwR9NIwemocBsHMk/kimHvwiomCRYemBqFfp+NqXAmbnRKxViRT1zL6hN1kPI1Nf2IQxDh1s7CO9aej+OpQIEuPBGPndQNx+vXx9bgfir0EK49U5my8Km28LjCV84apjDfM3MaFBWbuLDCV8ZqxG3M2XmHZ4QDquybuDsIBzDshT1qSLz0SxArbIFQpD+iWfpZk4jKP+Rv99MQg3K9pZrVDCPOMlZIYzt3izpvmCq5E5zEw8HgQGyIzoNVRUF5HSFoRqqQCfnLw52trH5YdUo0L/2vpyVobFc5hWUTcKuZGXjl9k/zWSlFNFwt3ejHPRM4rJkILlfPBbk+iMoTy9mTXtCAIj/aRV/b9Ot4xkzHX1IP55grmm8qZY6zExjt1jJf+ULnHX0V4qq884sNbFp78fdv4IPSGzw/6klVcPZLk4AA/VJ/+VVpxg9T4eWZyhgZUcWzoauRopUmvsj3mYXTF+ti0IIhsDR3deAg3vaQSVIl5rD8VKjXi9a0e0s+BLD4UiGtcMX7pD3BNKiGl4NHwFDmSqABhKrVZaIwf7/Uis2gMCIOVFFQ1obhRjOJmCWkPmll3NoE3tip4UwQLD5ZYqnCPziMgoxxZcin5j8S5i9HgjeRn6HkcCENF+gd01LepqWtVc72wgfnmnvzFyI3vj3hyzCMWi0vXWGUbwI8nwzgblMUp1U1p3v+vH5zZeDaC+7XtCC/20roWKZTVtVH4sIElBz2ZJ9TlMesGERdrhw/3eBFxq0Ry1S+vbaGstoXS2jYe1rVywiuJF366wl/Xu0g/OnE+MJ1tlxNZecRfoungEc/BK9G8bibnpU3ukj90U2cPj5rakbRHSaqHWqiHQEj6OBCGkEvIr5OcsYUL7vmYB7y7y4cFpkqW75OzZL+cz/Z78/EuOZ/sUbLY0oct56L5eJ+KV7a4862NH0aO4dKX+crKBxGWWKn4wV7FR9tlkn4wEQgLzBS8t13JzycCWWnrzxJLUVbFV1a+fGfjxwprTxaYukurz0vXivh8jweLDqj4aKeSz/Z68fleBasPe/Dhbk/e3uaNTcA9aXP3X8eCcI4pQH8Ee0YgIGW29Ejnzz9c4o2tXhzyK+C9XSpeN1OweLecN41deElYgja789Jm/X2dowDBl7nG7iy38uHzA36S5Ehu/hvdeGGjGx9ul/GBxVQgKHl3u5JlVt7SWCPc/F/YKKxRbiwwdePT3TLpK88zlfNLZBGvbRFfXMbfNrtL4aWNLiy3VPLxHi/+vk3FPp88ltpH8uf/OPPJfl+apJl8NAhCHsZJghhIxF94eikWV5Kw8srCObFSkoT5pgrWHFFh7hTLzxcS2XAhQQobnRI57JvJJwf8eGWzjLX2gexXpLJ+8L3IZ3QhgZ2XY/nnLvmkkiB0COHfuN05FrMrSYP16+mYOifwb4dACZzXTBQok8vZ7CTyDPJxMZFNTgkYnwvj/V3evGWhwiGkiNPhhZhfSeakfzpCrxiS9KHxYBIQBvsKeokQk96t0mbe2eHNy8ZK9l6JkQ5dNXX10yiCup8WdT+F1R0stvTjfza4YOoUT317H81q/XuRp0ndT3VjJ8ssvaYcEz7a40N8TgVt3QNS3Y3qPgQtUdfZ4AzmbHaTHL6ySptpUQ8M8yDyiQMofgm5vLFVP2O4JpZKBwL6tAxu7o6XgglBGInQ0LNYiBifCWGdQwAJOROvzFq6ujnsfo21R1V4xudNBDhi32GZpafkwjvWqiTi4oTLh7u9yZhkdkgrrGLz2VB+OuYnnaka4m/kvbpFzU7nGH6w8yX29sx0hnHdYWSFo3ATJ1ElcZpkzh1+J2RHL3ajygM9vX18b+/Pwt1+fLB3fFi425elhwPJvj/krjOSG/E8+FtNIw6LjM2hJ63PJ+kIEhNjORldakoQRmfVxyarbuJ0HQM6HWX1XdwobibxXgNHA3LZ75PHAZ/8cWG/Ty6H/PMIzqwmpaSJ3MpW+kfYEybiZ2zaaD6GYkP3sbn18ScGYeJqJk9V92mxD7jNh/v8+cwymC+OhPOlTQSLj4wPX9hE8KVNKIusgvl4f6BkLJlqhTo51Sd7M+sgiFXkdtcU6ST8XGOFtEQWbv2vGcvHhaF0sYwW0+/nliFUtU3S/Z6snVPmnnUQHtsT3CbUEidSmsRSWgA2nT1hypY9wctZB0FIwjZhWTJyk9RioRpPF8QaYs5mdxZZh0xrWXqCtk6addZB6O7Tci40l2+OhvPd8agZhZXH9b+yYXE5icGfZZu0Ac/jxayDIHp0h6afRx19PGp/stDU3WeQTdlZB2HqyWm676hX4afL9azvZx2ECVXHZ+X6OZc3AAjPmeNZqO4PECZaSs8C0P/vq/w/6tiSdwtDq14AAAAASUVORK5CYII=;" vertex="1" parent="1">
          <mxGeometry x="70" y="140" width="65" height="91" as="geometry" />
        </mxCell>
        <mxCell id="6XLEAazFI10cdfCFDWLp-3" value="Data collection" style="text;html=1;strokeColor=none;fillColor=none;align=center;verticalAlign=middle;whiteSpace=wrap;rounded=0;" vertex="1" parent="1">
          <mxGeometry x="58.75" y="231" width="87.5" height="20" as="geometry" />
        </mxCell>
        <mxCell id="6XLEAazFI10cdfCFDWLp-10" value="" style="html=1;shadow=0;dashed=0;align=center;verticalAlign=middle;shape=mxgraph.arrows2.arrow;dy=0.6;dx=40;notch=15;fillColor=#dae8fc;strokeColor=#6c8ebf;" vertex="1" parent="1">
          <mxGeometry x="146.25" y="169.69" width="133.75" height="31.62" as="geometry" />
        </mxCell>
        <mxCell id="6XLEAazFI10cdfCFDWLp-13" value="Original data" style="text;html=1;strokeColor=none;align=center;verticalAlign=middle;whiteSpace=wrap;rounded=0;fillColor=#ffffff;" vertex="1" parent="1">
          <mxGeometry x="268.69" y="231" width="100" height="20" as="geometry" />
        </mxCell>
        <mxCell id="6XLEAazFI10cdfCFDWLp-14" value="" style="aspect=fixed;html=1;points=[];align=center;image;fontSize=12;image=img/lib/mscae/Data_Catalog.svg;fillColor=#ffffff;" vertex="1" parent="1">
          <mxGeometry x="490" y="145.06" width="76.01" height="80.87" as="geometry" />
        </mxCell>
        <mxCell id="6XLEAazFI10cdfCFDWLp-15" value="" style="html=1;shadow=0;dashed=0;align=center;verticalAlign=middle;shape=mxgraph.arrows2.arrow;dy=0.6;dx=40;notch=15;fillColor=#dae8fc;strokeColor=#6c8ebf;" vertex="1" parent="1">
          <mxGeometry x="347" y="169.69" width="133.75" height="31.62" as="geometry" />
        </mxCell>
        <mxCell id="6XLEAazFI10cdfCFDWLp-18" value="Data expansion" style="text;html=1;strokeColor=none;fillColor=none;align=center;verticalAlign=middle;whiteSpace=wrap;rounded=0;" vertex="1" parent="1">
          <mxGeometry x="473.01" y="231" width="110" height="20" as="geometry" />
        </mxCell>
        <mxCell id="6XLEAazFI10cdfCFDWLp-19" value="" style="html=1;shadow=0;dashed=0;align=center;verticalAlign=middle;shape=mxgraph.arrows2.arrow;dy=0.6;dx=40;notch=15;fillColor=#dae8fc;strokeColor=#6c8ebf;" vertex="1" parent="1">
          <mxGeometry x="583.01" y="169.69" width="266.99" height="31.62" as="geometry" />
        </mxCell>
        <mxCell id="6XLEAazFI10cdfCFDWLp-20" value="" style="image;html=1;image=img/lib/clip_art/computers/Data_Filtering_128x128.png;fillColor=#ffffff;" vertex="1" parent="1">
          <mxGeometry x="860" y="140" width="80" height="82.75" as="geometry" />
        </mxCell>
        <mxCell id="6XLEAazFI10cdfCFDWLp-21" value="Feature selection" style="text;html=1;strokeColor=none;fillColor=none;align=center;verticalAlign=middle;whiteSpace=wrap;rounded=0;" vertex="1" parent="1">
          <mxGeometry x="815" y="225.93" width="170" height="20" as="geometry" />
        </mxCell>
        <mxCell id="6XLEAazFI10cdfCFDWLp-22" value="" style="html=1;shadow=0;dashed=0;align=center;verticalAlign=middle;shape=mxgraph.arrows2.arrow;dy=0.6;dx=40;notch=15;fillColor=#dae8fc;strokeColor=#6c8ebf;rotation=90;" vertex="1" parent="1">
          <mxGeometry x="473.57" y="287.56" width="108.87" height="31.62" as="geometry" />
        </mxCell>
        <mxCell id="6XLEAazFI10cdfCFDWLp-25" value="" style="shape=image;html=1;verticalAlign=top;verticalLabelPosition=bottom;labelBackgroundColor=#ffffff;imageAspect=0;aspect=fixed;image=https://cdn4.iconfinder.com/data/icons/education-759/2050/Education_flat-09-128.png;fillColor=#ffffff;" vertex="1" parent="1">
          <mxGeometry x="473.57" y="360" width="110" height="110" as="geometry" />
        </mxCell>
        <mxCell id="6XLEAazFI10cdfCFDWLp-26" value="" style="html=1;shadow=0;dashed=0;align=center;verticalAlign=middle;shape=mxgraph.arrows2.arrow;dy=0.6;dx=40;notch=15;fillColor=#dae8fc;strokeColor=#6c8ebf;rotation=90;" vertex="1" parent="1">
          <mxGeometry x="845.5699999999999" y="287.56" width="108.87" height="31.62" as="geometry" />
        </mxCell>
        <mxCell id="6XLEAazFI10cdfCFDWLp-27" value="" style="shape=image;html=1;verticalAlign=top;verticalLabelPosition=bottom;labelBackgroundColor=#ffffff;imageAspect=0;aspect=fixed;image=https://cdn4.iconfinder.com/data/icons/education-759/2050/Education_flat-09-128.png;fillColor=#ffffff;" vertex="1" parent="1">
          <mxGeometry x="845" y="360" width="110" height="110" as="geometry" />
        </mxCell>
        <mxCell id="6XLEAazFI10cdfCFDWLp-28" value="Training model" style="text;html=1;strokeColor=none;fillColor=none;align=center;verticalAlign=middle;whiteSpace=wrap;rounded=0;" vertex="1" parent="1">
          <mxGeometry x="453.57" y="470" width="150" height="20" as="geometry" />
        </mxCell>
        <mxCell id="6XLEAazFI10cdfCFDWLp-29" value="Training model" style="text;html=1;strokeColor=none;fillColor=none;align=center;verticalAlign=middle;whiteSpace=wrap;rounded=0;" vertex="1" parent="1">
          <mxGeometry x="825" y="470" width="150" height="20" as="geometry" />
        </mxCell>
        <mxCell id="6XLEAazFI10cdfCFDWLp-30" value="" style="html=1;shadow=0;dashed=0;align=center;verticalAlign=middle;shape=mxgraph.arrows2.arrow;dy=0.6;dx=40;notch=15;fillColor=#dae8fc;strokeColor=#6c8ebf;" vertex="1" parent="1">
          <mxGeometry x="775.7" y="405.5" width="65.57" height="20" as="geometry" />
        </mxCell>
        <mxCell id="6XLEAazFI10cdfCFDWLp-31" value="" style="html=1;shadow=0;dashed=0;align=center;verticalAlign=middle;shape=mxgraph.arrows2.arrow;dy=0.6;dx=40;notch=15;fillColor=#dae8fc;strokeColor=#6c8ebf;rotation=-180;" vertex="1" parent="1">
          <mxGeometry x="589.6300000000001" y="405" width="71.88" height="20" as="geometry" />
        </mxCell>
        <mxCell id="6XLEAazFI10cdfCFDWLp-32" value="" style="shape=image;verticalLabelPosition=bottom;labelBackgroundColor=#ffffff;verticalAlign=top;aspect=fixed;imageAspect=0;image=data:image/png,iVBORw0KGgoAAAANSUhEUgAAAc8AAAFpCAYAAAD6PaPYAAAgAElEQVR4Ae2dB5gcR5mGDSYagwnGJvuAA0w44DA5cz7g4I4cTHY4AyadAROccQ5ykhNOsuQoS5aVrZxXOeeVdrVBm2Zzzkn/PV/N1mzvqKenp6Znumbm6+dZaXa6q8Nbvf11VX31/ycIFxIgARIgARIggZQInJDS1tyYBEiABEiABEhAKJ68CUiABEiABEggRQIUzxSBcXMSIAESIAESoHjyHiABEiABEiCBFAlQPFMExs1JgARIgARIgOLJe4AESIAESIAEUiRA8UwRGDcnARIgARIggZTEs6ioSK6//vqUfzZs2CAdHR3S2dkpmzdvlttvv911H4888ogsXbpUjhw5clzNDA4OSnV1tdx9992uZe+66y556qmnZOPGjdLe3i6jo6PH7YNfkAAJkAAJkEAQBFISz2uvvVZOOOGElH9uvPFGOXr0qFRVVcktt9wir33ta1338Y53vEO++c1vyg033CBbt26V/v7+2DV2dXXJmjVr5C1veYtr2de85jXy4Q9/WC644AJ55plnJBKJyNDQUKx8Oh+OHTum9rdp0yZ1Xo2NjensjmVJgARIgARynEBK4okW4+tf//oJP69+9avlZS97mbzgBS+Qk046SQlj/DZoFaLVWFFRIVdffbVA6FAGZfW2p556qvod37/qVa+Sz3/+81JWViYjIyMKMVqTixcvlje/+c3yohe9SF75ylfGymIf2CeO/9KXvlTe9KY3yXPPPSfNzc2BVM/w8LDMmDFDPvGJT8h//Md/yNy5cwPZL3dCAiRAAiSQmwRSEk90vaL16PyZM2eO/PCHP1TC9bvf/U7Wrl07YT22RXctBMgpnt/97ndl1qxZalu0Svfv369ajD/4wQ+UMEIMIbooj8Upnu973/tk0qRJE44DYf39738v73znO5WAnnPOObJt27ZAagUt2KlTp8pHPvIR+dznPifTp08PZL/cCQmQAAmQQG4SSEk83S4RY4znn3++nHzyyXLZZZdJaWmp22bqO6d4/vznP5d169bFtoVANTU1ybx58wTChxbk97//fdm+fbvaximeH/rQh2TKlCmxsviA9RiTvfjii+WFL3yhvOENb5D58+dP2Mb0F5wbjgfx/OxnPytPP/206a5YjgRIgARIIA8IWCOemiW6ajHm+eIXv1h13UIQsSQTT2yDFi5ahXpcFmOf8Uttba1qHaMliePgB63YadOmCYxNOI7uKsY4644dO+S6666T73znO6o7+IwzzlAtbV0WLe/KysoJh8GYKF4qsE+9HVrRzz77rOzdu1f6+vpoaJpAjL+QAAmQQG4RsE484bSFoxfi+aUvfUnWr1+viPoRT4gSxAzjrxg7RbewXuC+hTA/9NBD8pOf/ETe/e53x0QW2773ve9VLWiMbba0tChxq6urk/vvvz+2nRZl5/9oJa9cuVIdBsYidEE/+eSTal9nnnlmrCzGdz/5yU/K3/72N1m+fLlAmLmQAAmQAAnkJgFrxBPiNjAwIKtWrZKf/exnqtv2e9/7XmzcMpl4Ykz1wIEDctVVV6lu2/e85z2yZMmSWK3AuQuzEsZLX/GKVyhzEkxK+IH7F9+hq/iNb3yjajVCiOvr6+XRRx9V26BbGkYliDrMSrrshRdeqLqfIZwoAzfxBz7wASXep5xySmw7fQyYoT760Y+qc9Ut3NhJ8gMJkAAJkEBOELBCPCGcaOVhvPNHP/qRGj+FQKFrFQKGJZl4QjgvvfRS5cZFSxLTapzzRSGef/7zn+WnP/2pXH755coxi1Yifnbu3CnXXHONMhvBsXvfffcpdzDEDS1EtFhvvfVWJYof+9jH1FxTXRaOXuy7u7tbdftiPBZTbn7xi1+oVrDeDtNcIOzvete7lLnq3nvvjZmhcuJO4UmSAAmQAAnECIQmnm9729vkC1/4gqB1Ceft1772NYEwnX766fK6171OfV9cXCwIjoDFKZ5o0Z111llqG5THz9lnn61EC/NA0RrcvXu39Pb2xi4UQojxRoxhlpSUSGtra2wdWrwIzoD9vOQlL5Err7xSDh8+HFvvxzBUU1OjxkZx/jBDYX/o/tULzgVzV//yl7+oljG2we9cSIAESIAEco9AaOLpHDfEGCW6TGHGwTzKSy65RM3pdIqfUzydZZ2fIVwYg4RZB12obgsEDQ7emTNnqvFMdLMiiMNvf/tb+fjHP67EEwJ38ODBWHE/4glBxpQdCPsXv/hFdQ3Yr/MHLeNvfetbSjwxnqvHSmMH4gcSIAESIIGcIBCaeGJsES3Nr3zlK/LVr35Vvv3tb6tWGRyp8e5VkHSKJ7p03//+96uyX/7yl5URB4ES0CWKrll0lULwnAvGJNHFOnv27JhQYjoLxjGdAoyWp4l4QmxxLhgbde7P7TNeFhAEAsYhLiRAAiRAArlHIDTxjJ/nmQydUzyd8zzRHYsuWoyVIrDC29/+drnpppvUnFEIpl4gpnDfIkoQTD8QOWyPLmL8oMWIsdIgxBPjps5962Po/2E2QjAI7STW58j/SYAESIAEcoNAzosnMGPMEqYfjHVCGN/61rcqYXJ2+/b09KiWIVqt6J7F3E7MIUVQBwRvgFkJU1iCEE8Ei8D5YL+JfmCEcsbuzY3bhWdJAiRAAiQAAnkhnrgQCOUTTzyhpoGgBYngBHDJ6nUwCqFbFy3TK664QnUNQ1B19hWE8rvooouMxfPQoUNqPBNTUdDti9+5kAAJkAAJ5CeBvBFPVM+uXbvkD3/4gxrHxJjiihUr1NgnppHARARDEsY5IZ4IBYgFrT84axEBCF26yVqeH/zgB+W2225ThiSYkjCVBf8jchHMQdg/4t9iKkp5eblaB4GGa7ihoUG5fTGui2NCvLmQAAmQAAnkHoG8Ek8YgtD6xNgiumcnT56sBAvChVYoumvRKoUbFpGGYNhBhhQET/j0pz8tJ554oqt4IgADsrR86lOfUlNpYG7C7/hBUAcYnNDyRVctYt8iIMJnPvMZJaYwKGHayoIFC+SBBx5QZiWINNy+EFMuJEACJEACuUcgbfHE5H/k0PQTGB4i849//EOZaWAY0nFr/WCDYQgRg5CSDHk74wPD631gLufXv/51FTHovPPOU4ELsA4tTEwVQeQhjIvC8QonLILI43cYfE477TRX8UTLEWOjCFSPKTUoo8v++Mc/VgKKY0Bk0SpFAHmItNPJi+NBnFEe5iQEl9etX33u/J8ESIAESCA3CKQtnhhLRCoyP+KJnJ4w6qBl9stf/lK2bNnimxK6R5GFBUEQECMW8WPdFrTmEFIP3adoaT722GNqMwggzDt33323ipmLcHwQNOT+xBQTiDoCwLt122IHcOtCvM8991zV+kRZTLdBtCIINha4eyHyaGWi+xgir6eqvPzlLxfEukWEI3TpIqISw/MpbPyHBEiABHKOQNri2dbWpsYa0T25b98+z4Dn6NrEWB+crRBdZ5SfZOTQqkO37MKFC1VLT+f5jC+HLlpE+4GALVu2TI076m0ggJgDihYvAshj7BH7QzYVtCwRzg/TWfbs2aMytOhy+n8EWMC4KvatyyIsILK5OBdsh+8RBAHds/gBH5wPunbxEhE/D9VZnp9JgARIgATsJpC2eNp9eTw7EiABEiABEgieAMUzeKbcIwmQAAmQQJ4ToHjmeQXz8kiABEiABIInQPEMnin3SAIkQAIkkOcEKJ55XsG8PBIgARIggeAJUDyDZ8o9kgAJkAAJ5DkBimeeVzAvjwRIgARIIHgCFM/gmXKPJEACJEACeU6A4pnnFczLIwESIAESCJ4AxTMNpv1DozI8Op5wO41dsSgJkAAJkEAOEaB4GlQW5HJo5JhsONIh1a0DMkIBNaDIIiRAAiSQuwQongZ1B+Gsax+U658/KksPtEp777DBXliEBEiABEggVwlQPA1qrrVnWObtbpbfPlUidyyrll1VXQZ7YRESIAESIIFcJUDxTLHm0ENb1tgnf51VJudOLZaLniyRZ7c3ysDwaIp74uYkQAIkQAK5SoDimWLNNXUNyaJ9LXLe1GL52ZSD8vMpxXLb0irZX9uT4p64OQmQAAmQQK4SoHimUHPHjonsru6WmxdXyU8fORj7+eOMIzJ9a4MMjxwTem9TAMpNSYAESCBHCVA8U6i4zv4RNdZ54WOHYsIJEf3Fo8VyzYJKqW0fUC7cFHbJTUmABEiABHKQAMUzhUpDqxMGIWerU3/+w/RSmb2zSTr66LxNASk3JQESIIGcJEDx9FltCIaArlk4bLVgOv/HGOhfni2TypZ+zvv0yZSbkQAJkECuEqB4+qg5jGOiRQmj0L2ramTyimq5c3m1oPv2yrkV6vfJK2vkn2tqpaShV/qG6Lz1gZWbkAAJkEDOEqB4+qg6iGf3wIiUN/XJ3ppu9bOzqksufqZUtUb1d/tqu6Wxc1AGOW3FB1VuQgIkQAK5S4DiaVh3g8PH5O/Plcn60g7DPbAYCZAACZBArhKgeBrWHMXTEByLkQAJkEAeEKB4GlYixdMQHIuRAAmQQB4QoHgaViLF0xAci5EACZBAHhCgeBpWIsXTEByLkQAJkEAeEKB4GlYixdMQHIuRAAmQQB4QoHgaViLF0xAci5EACZBAHhCgeBpWIsXTEByLkQAJkEAeEMh78ayqqpIZM2bIRRddpH62bdsWSLVRPAPByJ2QAAmQQE4SyEvxPHbsmHR3d8umTZvk5ptvlrPPPltOOukk9TNz5sxAKoriGQhG7oQESIAEcpJA3onn0NCQ1NfXy5IlS+SCCy6Qs846S8444ww54YQT1M/TTz8dSEVRPAPByJ2QAAmQQE4SyDvxbGhokClTpsiZZ54pp512mpx33nly6623Ujxz8vbkSZMACZCAnQTyTjwPHDgg55xzjnzjG99QIlpaWiqLFi2ieNp5//GsSIAESCAnCeSdeDY1NcncuXNl1apVUldXJ8PDw7J69WqKZ07enjxpEiABErCTQN6J58jIiPT29sro6HhOTYqnnTcfz4oESIAEcpVA3omnW0VQPN2o8DsSIAESIAFTAhRPQ3JOt+2xYyIjo8dkOMnPKDZ0LPg9WRmsH51YzNexUM55OOzCzzliG+fh/F4byjkX/Jqta8Nx7by2eCZZrG+f96RbvflhmSv3svOeTOVejrudnbvhZxJQBCiehjeCUzx3Hu2SmxYdlUtnl3v+PLu9Ubr6R2JHXLK/Ra5bWOlZBvtce7hdegej3dB4ADy2MSL/mF+RtFxxpFcGhqPlGjoHZdLSKrlyrvc53rm8Wlq6h5Tw4UT31XbLzYuPymVJru2pLQ3S2Td+bSuL2+T655Nf2/KDbdIzMF5u+tYGuWZB8mvbU90t/UPRa2vrGZLJK6vlqnne5W5dUiWRjkEZGomK2uH6XnVtl8/xZjJ1Q0Q6+oZjLyNFpe1yg49re35vi3Q7ru25HY1y7YLkTLZVdknf2LWBzT/X1MrVSa7t+oWVcrSlP3ZtFc19csuSo5Ls2h5aVyftvcOixXBLeafc6ONenrurecK9vGBPs697eWNZh/SN3cuDw6MyZX1d0nsZ9XqksU/wN4elpm1AUJdXJLmX711VI229w+rFCuV2Vvn7O8XfwKpDbepvYOLrjzo8/yEBRYDiaXgjOMUTwrS5vFPWlbR7/uBhrR8AOCwecHiYJCtX3ToQeyii3P7aHtlwJHk5iKBuWfQMjsjWik5ZX+p9jtvHHtz6zbupa8jXtR2s64kJNc4RD/JNPq6t0vHAR7niiL9ra+waF3iI6I6jXbK+1JvJlopOJdRaKFp7hgRikYz/vtrotekHKR7efq6tvKlvQr0dbuj1Vd/1HYOxlxcI/a6qLlmfpL5xPnh5GR2rOIg9rhdC73V9eAkZGBqNvRjUtQ/I5nJvjthfacO4mKHeIG5+7uXa9gEZHnt5wb25t6Y76b2MenWKIF5AcS8nuzaIJe4N3QOT7O8UgnnXimr1ovLk5gZVVv8d4Bq5kICTAMXTSSOFz07xTKEYNyUBErCMAF6KIOh4kXh6S4Pqjbh/da109o23Wi07ZZ6OBQQonoaVQPE0BMdiJGARAQgnusjLGvsEXdgYNsD/GOJArwvG7bmQgBsBiqcbFR/fUTx9QOImJGA5AbQ4y5r61Pg8xrbxGV3kFE/LK86C06N4GlYCxdMQHIuRgCUEdFctWprTNkQE4+8wMVE8Lakgy0+D4mlYQRRPQ3AsRgIWEIBwwmSGMU78oMWpnekUTwsqKAdOIe/Es6urS7Zv3y5Tp06V+++/X/1cfPHFsfB8559/fuz7hx9+WNrb242qieJphI2FSCBUAhjBhIMZ5iBMr5qxrUHgFHcuFE8nDX5ORCDvxBPJr6+77jo59dRTY4Kp05HF/3/yySfL4cOHE7Hx/J7i6YmHK0nAOgIxc1BTnzy4rk61OOOFEydN8bSu6qw8obwUz+uvv15OP/10OfHEEz1/TjnlFCkpKTGqGIqnETYWIoHQCMSbgzAP122heLpR4XfxBPJOPAcHB1Uy7H379smuXbs8f/bs2SMDAwPxTHz9TvH0hYkbkYAVBI4zBzX3x8Y440+Q4hlPhL+7Ecg78XS7yEx8R/HMBFXukwSCJwAjEEIeKnPQ1qg5CK7aRMvBSI/M2dnEIAmJAPF7RYDiaXgjUDwNwbEYCWSJAMLyITwfQvnBHITY0m5jnPGn09ozrNy3EFgd2i9+G/5OAhRPw3uA4mkIjsVIIAsEIHoIyn+grkfuXlkjM7c1qvi7WTg0D1EgBCiehhVN8TQEx2IkkAUC6KqFcP79uXJ5bkeTICA9FxIIkgDF05AmxdMQHIuRQIYJoKsWWY7uW12rhBOZYnQaOj+HRlYbnfKOoW39ECvMbSiehvVO8TQEx2IkkEECEE6k63tiU708t7NJ5f5MRThxaruru+XxTfUqz6lO6ZfBU+auc5QAxdOw4iiehuBYjAQyQECbg5DDFMI3e2eTVDT3Gx2JU1WMsBVcIYqnYZVTPA3BsRgJBExAm4PgpJ28ska1OE2FE6dG8Qy4gvJ0dxRPw4qleBqCYzESCJgAzEH7a4MzB1E8A66gPN0dxdOwYimehuBYjAQCJBBvDoKrNtUxzvjToXjGE+HvbgQonm5UfHxH8fQBiZuQQAYJoMWpzUEY46xpS184cboUzwxWWh7tmuJpWJkUT0NwLEYCaRLQ5iBEDkrXHOR2KhRPNyr8Lp4AxTOeiM/fKZ4+QXEzEgiQwOixY9LVH40cNHlF+uYgt1OjeLpR4XfxBCie8UR8/k7x9AmKm5FAgAR6BkZkW0Wn/HVWWcYiB1E8A6ywPN4VxdOwcimehuBYjAQMCXT1D8vqw21yz8oaWXagVRAJKF1zkNupHGnsk6UHWlVsXLR0uZCAGwGKpxsVH99RPH1A4iYkEAAByBe6alcUt8ljG+vl+b0t0tQ1JMMZip2HgPIQZuyf0hlABebpLiiehhVL8TQEx2IkkAKB0dHoGOfaknaZuiEiC/e0SKSDQd5TQMhNM0SA4mkIluJpCI7FSMAnAXSZtvcOy/bKTrltabUs2gfhHPRZ2nwz/G1jbJVdtuYMC6EkxdOwlimehuBYjAR8EoCAYTrKn2cekeUHW6W5e8hnyfQ2q2odkI1lHdI7SAFNj2R+l6Z4GtYvxdMQHIuRgA8Cyhx0KGoOgnmnqWtQhkeyMwIJwf7nmlpp7cncuKoPBNzEcgIUT8MKongagmMxEvAgoM1BK4vb5PGYOShq3vEoFugqTlUJFGfe7oziaVi1FE9DcCxGAgkI2GIOongmqCB+PYEAxXMCDv+/UDz9s+KWJJCMAMw5HX0wB3XJbUursmYOcjsviqcbFX4XT4DiGU/E5+8UT5+guBkJ+CAAc9CW8k655NmyrJqD3E6N4ulGhd/FE6B4xhPx+TvF0ycobkYCSQhgOgrGOO9ZVaMi+zRm0RzkdmoUTzcq/C6eAMUznojP3ymePkFxMxJIQACR71q6h2Tx/hZlDlqyv1WUcGYoclCC0zjua4rncUj4hQsBiqcLFD9fUTz9UOI2JOBOAKHvMBUE01AeXR+RJftblHC6b53dbyme2eWdq0ejeBrWHMXTEByLFTyBkdFjKuDBupJ2uWVJlawqblNCagsYzPO8f3WtahVnKn6uLdfK8zAnQPE0ZEfxNATHYgVPoK1nWFYfalORgxDJBy7b7IQ/8If+aEu/rC9lhCF/tAp3K4qnYd1TPA3BsVhBE0CIvcX7WlRasaLSdmnrHRa0RG1aBoZHVRYXxra1qVbsOxeKp2GdUDwNwbFYQRLQ5qBFe1tUWjHEqoXL1jbhLMjK4UUbEaB4GmEToXgagmOxgiMQbw5CImuYhUyXweFRlV0F4puJZNiYc6pdv3a1iU2JsVwmCFA8DalSPA3BsVhBEZhgDlocjDkIY6QwG2040iF17QOBJ8Uua+qT5QfbBEmx2XVbULdrShdL8UwJ1/jGFM9xFvxEAokIaHPQJTOPyKaAzEF9g6Oyv7ZHrp5XIfN3N6uMK4mOb/I9RPn2ZVXS3MWsKib8CqUMxdOwpimehuBYrGAIxMxBq2qkqKRdIKRBjHGiNajD+T20rk6e29EkDZ3BJcnmPM+CuUXTulCKpyE+iqchOBbLewKJzEHImhLUgj119g0LHLtPbKpXAqrHKdM9BsUzXYKFUZ7iaVjPFE9DcCyW1wRg4EErEKYgRA5K1xyUDBZMQxBQtEAX7GmWSPtg2iYiimcy6lwPAhRPw/uA4mkIjsXylsDwyDHlgkWs2luXVMnqw+1puWr9gkILFBlZ/jG/Qol1JE0TEcXTL/nC3o7iaVj/FE9DcCyWtwTqOwbl+b0t8vfnymRvTbcalwyuozYxNhwDY6A4JgR0/p70TEQUz8SsuWacAMVznEVKnyieKeHixnlOoLZtQObualYxYXcc7cp6hJ4gTUQUzzy/WQO6PIqnIUiKpyE4FssrAvAAYa4lhBPGHYw/ohUYoDfINy83E1GTwXQTiqdv5AW9IcXTsPopnobgWCxvCMAchK5azLWcuiEia0vapbt/JPTri5mI1pqZiHZVdcm0jREr4+6GDpcnECNA8YyhSO0DxTM1Xtw6vwgg5F6kY1Dl4URaMWRHQUQeWxZtIkIgheUHWtW5+k0vhuvaVdUt/UOjobSgbWHI8/AmQPH05pNwLcUzIRquKAACaHEu3Nsilz5XnlVzkF+0ThPRNfMrVesY80D9LJinyrB8fkgV9jYUT8P6p3gagmOxnCcAc9C83c3yzzW1sr0y++YgvwC1iWhzeac8nIFIRH7Pg9vlJwGKp2G9UjwNwbFYzhKAGNliDkoFYnwkomQmIuQYrWjul8GRUUErlAsJuBGgeLpR8fEdxdMHJG6SNwSc5iBEDrLFHOQXsDYRwRFc3tQnSGuWaCmO9Cr3cGd/MLF4Ex2H3+c2AYqnYf1RPA3BsVjOEdCRg5bsb5FbFlep7Cg2mYP8AkULtKqlX2Vh8TIPcaqKX6KFvR3F07D+KZ6G4Fgs5wjortpLZ9tpDvILFD2wmH+arCuW4umXaGFvR/E0rH+KpyE4FsspAkca+2TWjiZ5uKhOdgYYOairf0QwnxJji72D9kxxQeVQPHPqFg3tZCmehugpnobgWCwnCCDvZllTn8zc3ihPb2mQrRWd0jsYnIEG4ol9YgwSImpTNzDFMydu0dBPkuJpWAUUT0NwLGY9gYHhUalq7ZeZ2xrlsY31sqWiU/BdkAsMOzjG1PURmb6lQQmoLS1QimeQNZ2/+6J4GtYtxdMQHItZTQCuWphqnt3eJHcsq5bd1d2BC6cGgPHHmrYBJaBw8O6v7ZHBkWNJxyR1+Uz9T/HMFNn82i/F07A+KZ6G4FjMagKVzdEW5zULKgXjnQNDwbY44y8eAooW6PStDTJpSZWUNWIaSbiTKyme8bXE390IUDzdqPj4juLpAxI3ySkCEEuMccIcdKCuR/oCHOP0AoEuXIyvIjMLBBQt0DC7cCmeXrXFdZoAxVOTSPF/imeKwLi5tQRgDkLgAG0O2lbZqYIIJJvSEeQFIQg7Wp0Y/0QXbpgmIoj3s9sbpaOPQRKCrON82xfF07BGKZ6G4FjMKgLZMAf5vWC0QKstMBE1dw9JSUNv1l8g/HLidnYQoHga1gPF0xAci1lDQJmDWvtl1vYmuT3D5iC/F61NRGh9TlkfUd3HOM9stoL9niu3K2wCFE/D+qd4GoJjMWsIaHPQtWPmIHSd2rBoE9EzE0xEdpybDXx4DnYQoHga1gPF0xAci1lBQJuDHimKyP4smoP8XrwyETXCRNSUdRNRY+egMi2hS5stXr81VnjbUTwN65ziaQiOxUIlgIDoByM98szWaOSgMMxBfgFoExEiHE3dkD0T0d6abhVVCZlYYKbiQgJuBCieblR8fEfx9AGJm1hFoG9oVEobe+XJzQ0qchCEM+jIQUFfcNRENKAcuJgLuquqO+PTWDhVJehazM/9UTwN65XiaQiOxUIhABFCV+2jGyJy3+paOVzfK15puUI5yQQHRdcpIhEpE1FR5k1EFM8EFcGvJxCgeE7A4f8Xiqd/VtwyfALFkR7V9XnH8molRHCw5tIyeiwaNhDdzZOW6khEmTERUTxz6c4I71wpnobsKZ6G4Fgs6wQwhvfUlnrVVatC7sEIk/WzSP+A6GJGIAWniahnIPh0ZhTP9OuqEPZA8TSsZYqnITgWyxqB4ZFjap7kU1saZMa2RoGI5roBJhsmIopn1m7RnD4QxdOw+iiehuBYLCsElDmooVce2xgRiOee6u6cGeNMBmiCiUilMwvWRETxTFYDXA8CFE/D+4DiaQiOxTJOwGkOundVTSDmIIw5QpCRMsyG2RvaRIR8oFOKInKwrkeCikRE8cz4LZoXB6B4GlYjxdMQHItlnACEZNqGiARpDmrrHZai0g45FOmV7v7gxxlNoEwwEcXSmaVvIqJ4mtRG4ZWheBrWOcXTEByLZZSANqd9TbYAACAASURBVAc9vqk+mo8zIHNQV/+I7KjskrtX1siGIx0q40hGL8TnzmEigglqDiIRLY2mM0vXRISg8Iv2tQiuGQLNhQTcCFA83aj4+I7i6QMSN8kagUybg9Al2tA5KHN2NinX7rqSdmsEVJuIntrcoFrc6aYz6+wbjk3noXZm7RbOuQNRPA2rjOJpCI7FAieAxNFoLcEc9OTm+oyZgzDWCQGdtSMqoGiBdg+gdRb4JaW8w3gT0e4sRCJK+SRZIK8IUDwNq5PiaQiOxQIlgFYXxiERfScoc1CyE1Qt0F1Ncufyatl5tMsaAXWaiBDw3tREhMhL4MpWZ7I7obDXUzwN65/iaQiOxQIjgPG47ZVd8s81tfLg2jqpbRtQbtjADpBgR7oFumR/q1w2uzwqoBaZiI629Kt5rZMMTUQIBbi1olP6hjjmmeAW4NecqmJ+D1A8zdmxZPoEIJybyjvV+CNC1lW19AvuyWz1oGIMtK59QCCgdy2vttJEhEhEtxmYiLYf7ZKHi+qktYdZVdK/U/N3D2x5GtYtxdMQHIulTQAOU2REgaN29s4mNY8zjC7GeBNRkYUmImSQmbahXlIxEXGqStq3aEHsgOJpWM0UT0NwLJYWARh09tf2yEPr6mTm9sbQhFNfhO7ChYlo2sZ61QK10UQ0f3ezVDT369P2/J/i6YmHK8cIUDwNbwWKpyE4FjMmABMLhPOeVTXKIFTZ0m+NqUVPY7ljWbXsrOoSzLW0wYWrTUSrD7XL7upuX+wpnr4wFfxGFE/DW4DiaQiOxYwIaHPQA2tr1XhcY9egVbFqcX71nYNqDBQmoh1w4VpiIkIwfPy9Yi6sn4Xi6YcSt6F4Gt4DFE9DcCyWMgEI0+YxcxCyo1S19vsWgpQPlkYBbSJavK9FJq+wKxJRKpdF8UyFVuFuS/E0rHuKpyE4FkuJgC3mIL8nrU1EMDI9trFebDIR+b0GiqdfUoW9HcXTsP4pnobgWMw3AW0OwhzOmdvCNwf5PfEJJqINdpmI/FwDxdMPJW5D8TS8ByiehuBYzBcBpzloyvqIpGIOQoQctFgxxudvlM/XKaW8kTYR3b6sOjZVxAYTUbIL2VzeoQLgt3QPWTWunOy8uT67BCiehrwpnobgWCwpgXFzUJ08UlQnqZqDMCaKCDmYmuHXJJP0pAw2UCaijkFZOhaJyCYTkdflgNvaw+3SM8gIQ16cCn0dxdPwDqB4GoJjsYQE0ErEmCEylkzdEFHzOBE5KFUBRItvZXGbaj2V1PeqJNYJD5rhFbloIkLSb+QvhUs3zJZ7hquGu0+TAMXTECDF0xAci7kSwHxEzI2EcCJy0LzdzVLa2Gs0j7NvcFQO1ffKE5vqlWkHc0OReSWsRZuIdDqzXDQRhcWOx7WXAMXTsG4onobgWOw4AhDOjr5hFeQdmVEgnBjjTGfBmGl5U588sKZWmY0goGhRhbXgGtEiVpGINtTLRovSmcUzwctHa88QW57xYPj7BAIUzwk4/P9C8fTPilsmJoBuQbQ4kR1l0tIqeXZ7o0Q6BhMXSGENuh2RYQQCiviuyPkJM1GYXZHKRLSrSWw2EWHMc/WhtrEoSWHSSqGyuWnWCVA8DZFTPA3BsdgEAujSLCptVyH3EKsWY22jAVpSIaBlTX0qSfbdK2toIppA3/2XTWUdcteKammm29YdEL9VBCiehjcCxdMQHIspAmjPQDhXHWqTaRsiqqu2vmNQdRUGjQhduBgDRZcpBPSwRSYinM+GIx2q2zro6zbdH+d5mpIrrHIUT8P6pngagmMxZQJCVy1anBDOBXuaVfdqJtEoE1HEPhMRIhE9blkkIopnJu/E/Nk3xdOwLimehuAKvFjMHHS0S4IyB/lFareJKKJMRDZkY6F4+r2jCns7iqdh/VM8DcEVcLGYOeho1ByEMU501WZz0SaifyoTUcQqE9FtS6tkd1W3MurgJSOsheIZFvncOi7F07C+KJ6G4Aq4mDYHocWpzUEQs2wv4yaiBjUGal0kosou6QoxnRnFM9t3ZG4ej+JpWG8UT0NwBVhsgjloY2bNQX7xKhNRxD4T0aJ9LXJPyCYiiqffu6iwt6N4GtY/xdMQXIEVQ8MSrah1DnNQugEQgkKoIxEhohFMO7ZEIgrbRETxDOoOy+/9UDwN65fiaQiugIohMDoyc2wq65T7V9fK/D3pRw4KGp82EWEMFGnPrIlEtL1RxffFnMtsm4gQwH7K+jpp64nGtw2aOfeXHwQonob1SPE0BFcgxbSrFq2Y6xZWyoI9LdLUNWTl1dtqIpq7q0lFXcq2iai2bUC2VXZJ3xCzqlh5w1pyUhRPw4qgeBqCK5BiCMS+9ECrTF5Ro/7v7BsWtERtXZSJqBGRiMZNRDA4hbXgfOBE1unMEL4wWyYiHHtweNQoKH9YvHjc7BOgeBoyp3gagsvzYtBHCOfze1tUPNllB1pV120IptqUSbuaiAbDCyYP8a5rHxAbTEQpw2SBvCdA8TSsYoqnIbg8LoaWJbKjQDCRjxP/JwvyXt85qAQiW62qZPh1JCIYiGAksspEtKleRWUC40wu2H9164AKn2hxZ0EmEXDfPghQPH1ActuE4ulGpXC/0+YgxGm9c3m1L+EErYORHpXBY1tFp2qx2vCwdjMR4buwFjBR6cyyZCJC7N+Fe1ukqz/YIP1h8eNxM0OA4mnIleJpCC4Pi+HhjjFNmIOuX3hUjXG29PgzB6FlOmNboxob3VfbIxApGwQUmV2QzgwuXLSiSxv6MhK0PpXbQaczm7SkSnZXZy4SEaeqpFIrhbstxdOw7imehuDysJg2ByFDCExCnf3+XZowp9S0Dajg8NfMr5R9Nd2qBWoDJuT+LGvsk6cKzERE8bTh7rP/HCiehnVE8TQEl0fF0EJU5qB94+Yg5IBM1RwEZydaeciuAncuunBtGQNFS7gYkYi2N6rIPyqdWcgmolqYiPa2qMD6mUhnRvHMoz/SDF4KxdMQLsXTEFyeFMMYZ3uK5iCvS4eAYn7hM1sblVFnc7k9AqpNRI9trJcnLDERNXYOynM7mhQrpHYL0kRE8fS6U7lOE6B4ahIp/k/xTBFYHm1uag5KhgBduBgDfXpLgwqXt63SHhPRwNColDf1qTFQRCI6UBcdn012TZlan0kTEcUzU7WWX/uleBrWJ8XTEFyOF0OXLFo560vHzUGtPs1Bfi9dm4juWlGtpopYYyI6FjURPWCRiQgtUEQiunVJlewJyERE8fR7pxb2dhRPw/qneBqCy/Fibb3DamzyrgxGDppgIloQNRH1DI5YQQ4moiNjJiJkP6ls7lfzIcM6Od1aRySiy+eUSxCRiCieYdVmbh2X4mlYXxRPQ3A5WkyNcfYOx8bZ1pW0i4k5yO/lO01Ed6+oka0VncrF67d8Jrez1USEqE73rqqVdE1EFM9M3j35s2+Kp2FdUjwNweVgseGRY9LYNSjzdjerOY9rS9pVyL1MX4rTRASjjo0moml5aCLCdKHpWxtU9zxatlxIwI0AxdONio/vKJ4+IOXBJuimxBjkiuI2uX1ZtQoPF/QYpxcm3S1pq4mowlYT0fqImKYza+wakoN1PTLA4PBet2bBr6N4Gt4CFE9DcDlUDI0OdM0uP9gqCGCAh3Fnf2bjqibCo0xEWxtV6D/Em7XNRIRIRI+uj6jx0LBbazoS0S2LgzMRJaoXfl+4BCiehnVP8TQEl0PFYA6CkxORg0xbMUFdLgQpFolIm4gG7DMRgZU1JqIDwZmIgqpH7id/CFA8DeuS4mkILgeKOc1BCAwAcxCmp4Qdc1abiObvblaCbm0kolU1YkMkIqQzg4novtWpmYjQckXrngsJeBGgeHrR8VhH8fSAk8OrwjIH+UU2biJqUNF+rDMR1feqPKZPWhaJCIYrv5GIdhztErw0cSEBLwIUTy86Husonh5wcnQVzEH1HYOysrhNbltalXVzkF9sVpuIhkelotmiSEQyns4MY7Lj3e+JXbQY4756XoXf6uB2BUqA4mlY8RRPQ3CWFkOXrNMchBZdWOYgv4h0JKI7ltsZicgmE5GORHTz4qNJIxFRPP3egYW9HcXTsP4pnobgLC0Gc9CcMXPQxrIO6RlAWjFLT3bstLSJaOGeZrlmQaXsrYnmuLThrHUkIkyxsdFEtLu6S9WxGyuKpxsVfhdPgOIZT8Tn7xRPn6As3wwChBbnrB1NapzLjzkIXbswxMBYAnNRmIvTRIRweYhEZGU6M4tMRBBHmInAzm2heLpR4XfxBCie8UR8/k7x9AnK4s3w8MT0D6S2gkEEhpKW7qGkZ4wyqw61qXLoOh0aCV9AdTozKyMRKRNRRJ7cXK9crMiBGtaCFnFb75AKgJCoZ4HiGVbt5NZxKZ6G9UXxNARnSTHUX1VLvyzc26LMQZvLO6S9118ABExbgfHkzuXVsnhfi8rDGbaAahPRU1sa1IsAAqRDpEJuGKvaRqQem0xEyW5BimcyQlwPAhRPw/uA4mkIzoJi6GqtbR9QsWoROQi5KXsH3bvwEp1u98CI7KrqlivmlMuifS3KpRt2Fy7ONWYiWlYtByyMRIR0ZrZEIkpUtxTPRGT4vZMAxdNJI4XPFM8UYFm2KQTmma2Nct+qWuW8NAl1hy4/mIp2VXUJ8m7O3tmkxkDDvlS0QKtbBwQmomttMxGNRNOZ2WIiSlRXFM9EZPi9kwDF00kjhc8UzxRgWbKpDvKOhzfGBmGugQCadm1CQNEChTsXY6bPbm+0zkR07yo705mB1T0WmIjcbk24lmdub3Rbxe9IIEaA4hlDkdoHimdqvMLeWpuDZm5rFKTR2lwW3DxOjIEWlUYFFC1QuHHDHgPF9UZNRPZGIpq6ASaihtBNRPH3JrLmlDf1xX/N30lgAgGK5wQc/n+hePpnFfaWgyMTzUHbKrsCn85ho4lodCyd2kQT0ahxSzvIeoyaiPrl/tW1ghcajDuj+5wLCeQKAYqnYU1RPA3BZbkYulYxpw+JrE3NQX5PWZuILp9gIvJbOnPbaRMR8pFqkTLtqg7yLFE3R1v6BZGIphRF05lB8MNeYPxCjGMuJOBFgOLpRcdjHcXTA45Fq2LmoNXm5iC/l4PnvjYRTV5Ro+aBIpBC2AvGejE31VYTUWljn9hkIqpq7ReEZ+RCAl4EKJ5edDzWUTw94FiwCoKBsUdtDtqSpjnI7yVBQJWJ6EiHPG6hiQgt8HtX1QrSmXX2hxeswMkT3bXFkR5luILBKex0ZpjDizRmXEjAiwDF04uOxzqKpweckFdNMAdtCNYc5PfSMAa63mEiQgvYFhPR9K32mogwB/SpkE1EnKri9y4v7O0onob1T/E0BJfhYmjFVDb3y6K9LTJpSZUg0k5YsV61ieiOZdWyeH+LCswQtoBiPC/SPqgECtNrwKdv0E4T0cGQTEQUzwz/kebJ7imehhVJ8TQEl8FiCBCAKQYztjXK9QujkYMgDGEu0THQbrHWRLTUYSIKE9TYsZ0mokeKIlLW2Jf14PsUTwtuhBw4BYqnYSVRPA3BZbBYWVOfCn7w0Lo6KWnoVVMfwnaVahPRzqNdYpuJyNZIRGidlzb0yfQtDYJMMehJyGaLneKZwT/SPNo1xdOwMimehuAyUAwPVrQ40Q2J8bw91d1R4czAsUx2mQsmIoQqRMQlW0xEfXEmokP1vap72YR/qmUonqkSK8ztKZ6G9U7xNAQXcDE8ZNG1h3RX+EGs2bC7ahNdoo5ENG1DvYqFa5uJCPwwRSOsMeJ4bqjHQ5FeFUg+myYiimd8TfB3NwIUTzcqPr6jePqAlOFNYA460tin5lMiPdj+2h6BmNq8aBMRAhYs2d9KE1GSynJGIsJYdjZMRBTPJJXC1YoAxdPwRqB4GoILqBhco9ocdOPzR1WkGkxRSbRg7BOGIpQLO3YMTES7q8ZNRAikEPbYLLjpSES3La2KiVTYrHBeYKMjET1SVCcY20Y9ZmpZWdwm1y2szNTuud88IUDxNKxIiqchuICK4QH6+KZ6gTmotKFXIJxez9OW7iE1podyYbdOnSaiu1faFYkoaiJqsS6dWdRE1JsVExGCNCBHKxcS8CJA8fSi47GO4ukBJ4Or8BCtaO5T0Xuc5qBkh2zrHRYdOWZ3dbeKApSsTCbXQ+i7+0dkQ3wkIihriAteQtDKm7urWQVttykSUbyJKFORiBAhqtGCsIoh3gY8tA8CFE8fkNw2oXi6Ucnsd05zEPJxpmIOwtgZpjwgZB7SYO042hW6gILWuIkoYpeJqH1AtfJgItpim4movlemIBLRFvvSmWX2L4B7t4kAxdOwNiiehuAMiw04zEGI2GNiDkK8W+S4jOaRrLdmSos2EWGs0S4T0YCKRAR3MF42bIpEhBchpDPTJiLcH0EteElr7x0OanfcT54SoHgaVizF0xCcQbFUzUHJDgEBxXgpxhvR9Yeu4HA7S6PZWNCdrCIR7W0R20xEkyw1ET2wplYeXqdNRMlq3t96OLhXFLf525hbFSwBiqdh1VM8DcEZFEO0IARAwEMSn5OZg5IdArkaK5r7Zc7OJrllcZWoCfgBtlySHd9tvTYRoYWHqDrP7WhSAuq2bTa/Q2u9urXfynRmMRPR1vFIREh8nu6y9nC7ui/S3Q/L5zcBiqdh/VI8DcGlUAzjlPtqe5RwztzeKHtropGDUthFwk3RzYfgCrN3NgnSYGHqCIwiYS7aRLQxzkSEKTZhLvEmInsjEdVGX4TSjGfMeZ5h3m25c2yKp2FdUTwNwfkshrmQB+p6VHSZZ7Y1qjFOBEUIctEmIrRqEcEG8WfDFlBcX9RE1C7TNkRU69iaSETtAyo/qpUmokivIJA88rdiPLx30PxFiOIZ5F9Z/u6L4mlYtxRPQ3A+ivUOjirhhKAhKTHmZqKLLhNLvIkI444Q6cwczf8V2GoiqmvXJqJI3pqIKJ7+79NC3pLiaVj7FE9DcEmKwRyEFidag3DVNncPCQQu04syEW2sV5lPSsZMRJk+ZrL9q0hEMBHNLlf5SW0zEd26pEqKIz2CLvDM11AyWhMjEWF8HBGoTG4dimdy1txChOJpeBdQPA3BJSmGcc1H10eUGxZGFQhnNh7MriaiNMfOklxq0tUTTESrbDQR2RmJCKYyBNDQ6cxSNRFRPJPemtxAKJ7GNwHF0xida0G0XjBWBeGctaNJGT8y1VXregIiqgUFExGcrkjRZUskImQ5UZGINtXLs9sblQs3bBMRxoujkYia5J9rounMrMnGMjSqYvPCZIZ6TDWdGcUz0V8Iv3cSYMvTSSOFzxTPFGAl2XSCOWhroxyM9GRsjDPJqYjtJiIEeMAUGztMRMdUVhiYdBC1ydZIRPtqulUoxGR1r9dTPDUJ/u9FgOLpRcdjHcXTA04Kq5zmoHtXZdYc5Pe00FVcg0hE6yPy5Cb7IhFNWlIlS61JZyZynIkIY6DZ6GtPUqF4EULXf2PXoOpVSLJ5bPX60g5BijsuJOBFgOLpRcdjHcXTA47PVdocNA3moOXV0tIzpNKG+Sye8c20ieiuFdUqOEO2u5HdLtBpInrewkhEtygTUa81JiI3hsm+QwCNdSXtyTbj+gInQPE0vAEonobgHMWc5qCqLJqDHKfg+RFiOSESUaRXxXf1LJThlU4TEYI7WBOJaGQsEtHeqIloT3W3QOhzcUG9pzNPNBevmeecOgGKZ+rMVAmKpyE4ETWPUpuD8PCHocOGVp3bFelIRMpEtLrWmkhENpuI5uyyz0TkVrf8jgTSIUDxNKRH8TQD19k3rFyscNU+E7I5yO8V5ISJaJclJqIRe01EfusbASow5s2FBLwIUDy96Hiso3h6wEmwCqHvkIPz0Q0RuX9NrZrEbmuLM/4SnCYi5BJFt6RNkYgQsMBGExHcwSqdmSUmovh6dfv9YF2PzNvd7LaK35FAjADFM4YitQ8Uz9R4jY4eEwQUf3BtrTy0rk7FkE01+gscnDAZhenk1OnM7lpul4kIYo50ZlaaiBYjElGvetlI7a4JZ2tOVQmHe64dleJpWGMUz9TAYZL/w0V1gonrCDMHEUx1Qai+7ZVdqsUadJB4v+dis4kIbDDdxyYTEYxgC/e0yHULK1VrPRdMRBRPv38Nhb0dxdOw/ime/sDBtbi5vEMeKaqT+XuapaK5T9AKNVnaeoYF6bruX12r0pOF9SCGcOtIRDgXW9KZWW0i2tkkSFxtUzqzRPcgxTMRGX7vJEDxdNJI4TPFMzksGC8w3vXA2lqVNxPZUdIJKwfRQrBvmI0Q1QaiFZaATjARbYmmMwvrXJw1odOZIcDDXJqInGh8f6Z4+kZV0BtSPA2rn+LpDQ7mIOTHnLK+Tokd3IvpCKc+GrpNa1oHVEsWKcsQei2sLly7TUSdgoAFNBHpO8f//xRP/6wKeUuKp2HtUzwTg8N4Jrrn0OJ8cF2dah0a9tQmPAgEFE7Ou1fWyJHG9Fq0CQ/ic4WORISQbqUNdsxZRSvYaSJq7BzMSnaaZMgQk3fGtka5efFRORTpVbGEk5XJ9nqKZ7aJ5+bxKJ6G9UbxTAxOm4OQAaTe0ByUeO/RNWiBohsY5pjblkadr2G1QKMmoj5BcIBbxpylfZakM4OJCJlFaCJKdkeNr6d4jrPgp8QEKJ6J2XiuoXgejyfeHKSSEQfd5HQcFmKJlt6s7Y1WmYiQoss2ExHmpoITWqBBdJ87qiHljxgvRjqz2TARra2zzkRE8Uy5SguyAMXTsNopnhPBBW0Omrj3xL9ZZyJq6ZfHNtYrQxPGfG0yEcFoNXdXsx3pzEaOqWwsNqYzw5DDw+vqEt90XEMCTIZtfg9QPKPsMOmku3/cHDRlfUQwBpjN1g26TatbB9QDT5mIantCy+qhTUQQKrT2EPweAm82Ocf8/owviZebTWUdcvPiKll6oFUJF7iFuaBTQqczgzsYLxuKVbinpXKU4ly4kIAXAbY8veh4rKN4RuEMjxxTD2V0VWbKHORRDRNWqRycNpmINkVTrZU29FkR+N5mE9HMbY1y06KjKkkAunW5kIDtBCiehjVE8RQV7ACtGITbm7erWeo7zCIHGVbBccWUiajRIhNRU9REhLizCE8XvonomOpG3gYT0Wp7TESot1yMRHTcDcgvCooAxdOwugtZPNGr1tk/LCuK21RX6ZL9LVLd2p/VrtpE1WajiWjWjmiKLptMROuPdKhuZRtNRA+GbCJq6hpSLeBE9xi/JwEQoHga3geFKp4QzpbuIcF0lHtW1ahA5BhvNAhVa0g+ebHjTEQhJmbWkYimbbDMRNQ7LEWl7SqAhY0mIoxdb6noVOPpyWs82C12VXULjs+FBLwIUDy96HisK0TxhHC29w7LxrJofFlMdm/qGkwonOiO6+wfkb6hUaNA8B74k67CWKw2ET2JSEQhmohgnsJ4LExEj1tnIuqUmxcdtcZEhJcwbSICrzBMRJyqkvTPixuw5Wl+DxSieMJJuupQm9yzskZNxRga8XaRIprMupJ2QX5EzAENY9GRiCavqFHB3LPpAo6/Xp3O7I5l1SoqEgQ+7AUmor3V3XLZ7Gg6s8auwbBPSR0f9442ER2uz24kIoqnFbeA9SfBlqdhFRWaeCITijYHLdjTrLpuk3XVqlbqkQ65dkGl6oLDOGm2F9tMRAgcoSIRWWgiQoYYWyIRhWkionhm+680N49H8TSst0IRT2UO6huWlTFzUKvqgkwmnMA6ODYRHk5cTDpfX9ohmG+Y7QVjoCUNvYJwgZhSg7mXYQUvwLkgFi+MOkjRtbu6WyUGzzYT5/FQl0hnhvpRkYh2NFkViQiC/tCYiQjnmemF4plpwvmxf4qnYT0WgngGYQ5CVy9CwkG48GCG0QjjoNnusLTNRITwdDQRJf/j0y9gT21pUCaebJiIKJ7J64Vb0G1rfA8UgniilajMQWtq5Zmt3uagZCAxBxQCihbEtopONQaK7CvZXGImoqI6gYloP0xEw97jtpk6PzcT0YBFkYgQsGDZWCSisMdmcZvARIQ6g4loV1VmIxFRPDN11+fXftnyNKzPfBdPPNxhDkLKr+lbGySZOcgPRphR5u1ulqvmVSjhCs1E1BZNZ3aXRSai220yEQ2OqK5tmIgW7m0R20xENz5/VDJpIqJ4+vlr5jYUT8N7IJ/FU5uDME7p1xzkByNaMLXtAypBc9gmIow7YiwNooXxUEynCWOBMUabiKyLRFTRqbLVWGUiaumXhXta5LqFlSpfKZKuB71QPIMmmp/7o3ga1ms+iicCdbf2DMnifS3ycFGdctdifmKQvat6DAsT8x8pssNEBOOONSaitXWCSfqZEIVUbvWcMBGti6YzC9pEBBMXsr1wIQEvAhRPLzoe6/JNPCGcDZ2DsvpQm9y7qkYJaNDCqXG6mYjwAMzuCKioDB5o9SETzPQtDcr5GpYLV+e4nLYhEk1nVmVHOjNMN0IkIjBClzvmX6K1HOaiX8AQBQg/SCEW5MtGc/eQ6o0I8xp5bPsJUDwN6yifxBOtDDwwIJwY41y0r0VFEjJE47tY/ZgLF7FMaSISFRs4FoloYzSdmTI0hatV0qnSmXUKxhptMxFBPLNhIvJ9U3PDgiFA8TSs6nwSTzygMbZ514pqJZxBdtMmwwszyvzdzXLlXG0iCmfsEaI1dUNE7lxercYgbYhEdNvSKmsiEcHcha5tZSLa0yIInm7DoiMR3fD8USnJciQiG66f5xAeAYqnIft8EE+I5ODwqMze2aTGHxEIIdtBDJwmIphAtpR3qpaOYbUYF0NXIExEYGGfiQjhDcN5qdBAMa0IXdroIUCgCZtMRJgzq01EQQSdwIvU9komw9Z1z//dCVA83bkk/TbXxRNjnMiOMn9P1Liz+nCbCmaQ9MIzsIEew4qaiCKCdFnZFnFclo5ENBPRf9bWWWEiwtxYdGtblc5sLBIRBBQBMMJspaPe9HgxUr/BIY4x0HRMRAjEAOZcSMCLAMXTi47H7OJuYwAAHoNJREFUulwWT20OwjzOySuqVeg9mIXCXKwzERXRRJTofujQJqIie0xEMDHpbCzpmog4VSVRzfN7JwGKp5NGCp9zVTzRVYsW5wRzUAjxZhOh1pGI0PLbVtk1Foko0daZ+R5CPp7OrN6eSEQb62VfTXc0KlLIJiL0DGwq6xSMNdpmIkIkIriDTSMRUTwz83eVb3uleBrWaK6KJ8Y4wzIH+UWtTURXzCkfi0QUznifjSaiSUurVGq1sEPmoS4nmoiarTMRXb+wUk05QbduKgvFMxVahbstxdOw7nNNPG0wB/lF7TQR4QFoi4kIIeHCjkQ0d1eTRCMR2WMiwhijlSaivS2C+ydVExHF0+9famFvR/E0rP9cEk83c1DYY5zJsDtNRFOKLDARbYsad8KORFTW2BcLsG+LiQhZcmxNZwYTEaYg4cUHfwd+FoqnH0rchuJpeA/kinjCCYm5cDAHYR4npqPAIZkLi3UmIkQi2mpHJCIIAkLI7bQkEpGtJiLc+whuj0hSFM9c+KvPnXOkeBrWVS6IJ+bmIYrP8oPRkHuIHBTGFBBDxLFiMRPRmlo1/w5jbX4fhLGdpPlhgolokz0moscsMhEhEtHm8k7VVWqLiQjVjhfIVO4XtjzT/GMpkOIUT8OKzgXxRLxP5OHEpP/Vh9qzHjvWEK1rMbSWEYkobBMRXLg2RSJCgnEbTUSXzylXxjRbIhG53lQJvqR4JgDDrycQoHhOwOH/F5vFEy1OCCcs+9M21MvGIx1pTRr3TyVzWyoTUduALNnfqqZHhGYiGh6dEIkoTBMRxoXLmvpEm4gO1tllIkK2GlsiEaVyZxZHelTwkFTKcNvCI0DxNKxzW8UT3YsY50GLc+qGejUXr7Vn2NdVoku3tLFPZVcJO3OG2wkfZyIqDTkSkUUmIkRFemidPenMjjMRdYUficjtnnL7rrN/WAVccFvH70hAE6B4ahIp/m+jeOpxucX7W+SuFTWysaxD/AonLh/zK5F+CvFdq1r7VdzbFLFkfHNcI5zCCFuHLssNY63qbAazx0UilJ9KZ4ZIRFsbVGJmjMWGsejwdOhORmo1BAcIK7Wa8/pVOrOSdhU3GV3ueKmz8aXMec78TAJ+CVA8/ZKK28428VTmoI5BlYdTCeeRjpRzHHb3jyj35rULKuX5vS1S3dpv7cMOJqJZiEFriYkIQn6gtica/SfuXsnGrzDF6HRmNBGlRxwvI/hb4EICXgQonl50PNbZJp7aHDQZLc4jHWLaEkOL6lB9ryDDCcQJImXrEjMRzS2XfbUY7wvngQcTEZJY25DODALqNBHZ0NJDKxjzY2H2WrjHnkhEie5r9CisOdyeaDW/JwFFgOJpeCPYIp7x5iDEG4WQmi6w9ENAdxztEgQnQDcgutt8zi83PaxROQhD7ZiJCImaaSISsd5EtLbOehMRhi5uX1ZldE+yUOEQoHga1rUN4qnNQTO2Rc1BG8s6Uxrj9Lp0pHTCnD04djGmhxaoDa2Y+HPWJqI5u5pUMHBEugljLqtOZ4a6gHEn7EhEyE06c1ujStFlTySiYTWmjpaxSmdmqYmIU1Xi/8r4uxsBiqcbFR/fhS2e6ZqDfFyiSkoNAYUY5IKJCI5Tm0xEiKkaVldyvInIlkhEuWAionj6eTpwG4qn4T0QpnjqyEGL90VdtXCcptNV64VAm4iumV8pi5SJaEBsyOjhds7aRIQg5dstSGemTER1Pcq1HEa393EmIm1oCuNkHBWmIxFdt6BSpTOLtA8IXgZtWSiettSE3edB8TSsnzDFU5uD7l6ZnjnI76UrE1GkV4VdywUTEVKuwZyyryYcExFkAE5luF7DNhHhXGAiQve7jkRkQ/e7NhFdObfCukhEFE+/T4bC3o7iaVj/YYgnWnxNXYMybWO9ChGHMU6MTWZ6mWAiQnD0HDER3bTIDhPRHcuqVVaPsNKZIYerjkQ0aUmVRCMRZf6+8bov0XsCAYXJ60HLTEQUT6+a4zpNgOKpSaT4f7bFEw/AypZ+JZxPbW4Q5FBMJQBCipfnunm8icjWSe8xE9HOJnl0fUSlywrbRPQwTUTH3VOYToUuXLhbnSaisLtwKZ7HVRW/cCFA8XSB4uerbIrneMuhWSavrBG4J7PR4nTjoMer0FqYs7NJdU/i/GxbMN6HSERwnOLBrOP7ms5/Nb0+dHlj3uAjRRF5hpGIXDEqE1Fpu3IG2xCJiOLpWk38Mo4AxTMOiN9fsyWeeAs/2tKvhAqRg/bX9qh5mH7PMxPbYcwVIeBoIvJHVzuj0fq0yUSEpAG4n/Dyk+2Xinhy+qUM0a2QzixME9G6knY1Phx/jvydBJwEKJ5OGil8zpZ4YowTMUvvW1Ur+2q7Q3/IaURoURVHelWGE5tNRDDMoAWqTESIRBSWieiYqHjBThNRWN2TUUNT1ER029IqKWvss2IOrzIRVXfLVfPCNRFhfBjJ47mQgBcBiqcXHY91mRZPbQ56uKhOntxcr1p6vYP2dI8mNBHhyWzZ4oxEFLaJCFlrMGcWOVZDTWfmMBHdShPRhDsWL4ZoCXMhAS8CFE8vOh7rMimeyhzUHJ3q8Pimetl5tEuQJsnGRZmIyqKRiDCmZ7uJCMIFExHmxoZpIkLKOFtMRIiK9EhRnRpLz9R8Yb/3Lt69bDQR+T1/blc4BCiehnWdKfG0yRzkF40er8oZE9FYJKIwTUQVzf1KsKwxEY1NQbIqnVlIJiK8ENqcEMHv3yW3yywBiqch30yIJ8bAqnyYg/oGRwVzBsMaM3NDNm4iqpBF+5DOzO5IRMgHev/qWhUAHyH0sh3gBm5gBFJA6xO9C5h7qYw7bnAz/B3mXOp0ZsgOY5uJCMa05TARdQxm5Z5HViGk5ONCAl4EKJ5edDzWZUI8Y+ag1YnNQejW2lbZJbuqupURxuMUs75Km4iQ4SS3TEThxKCFwxVJxx93RCIK64UI54IXHswhts5EVNMtV2fRRLSiuE2uWVCR9b8fHjC3CFA8DesrSPGEOaixa1B14yGMGrrOvAKKlzb0qSkPCIRuU/cSWm9oESOuLMYVkY1FpTOz1ESE1taS/a1y8+JwIxGhPjEWG4tEFJIxTA0ZNPYJMtTYGInooSxFIuI8T8OHYoEVo3gaVnhQ4jkwNokerQ+/5qDO/hFleMGcQQgokkLbFKw9V01E6y0wEcG4Y0M6s6iJKGKXiahkPBIRemky1UqneBo+FAusGMXTsMKDEE+00jBdAa2Oe1fVCFJY+Y0cBKcoHKMw6czb3aySQuOcbFm0ieiBtXUyd1eT6p5Ey8a2xS0SETLJZDtoALq8K5oRiajOmkhEuvcAQwRePSHZqlOdzgwp8jBvN1PObopntmo0t49D8TSsv3TFE3MPSxp6BVMWkB0Fn5GDMZUFQosu0qvmVqjux1rLUjs5TUQwYOSCieg+W0xEG2kicvtb0C9l/5hfETURtQffAqV4upHnd/EEKJ7xRHz+no54on2IkHsPrKkVjOMg9qmJ2xP7QYvgQG2PXLewUrXw0IVry4LzQ4sKTlIEJ7DaRHQsGolo4Z5mQZqsfTXhtLaUiajFJhNRv1UmItxTOhIRBBQt0KauoUBveYpnoDjzdmcUT8OqNRVPtC6RHQXTJDCudDDSk3KL03nKyqQzOKqyrKDLjyYiJ53UPjsjEd2yuEqly0JLJ9sLurdpIkpMXacz21zeKejCfW5HU6DOc4pnYvZcM06A4jnOIqVPJuKJ+ZmYQ4a5fU9vaVDz6YIaS0IEIoyBwkSEOYw2mog2lXWoUIPoqs7UeFVKleiysU5nhnFoxBQOKxIRxsOj3foNMqUoYoWJCPWGc0FWH2siEY2ZiFBfaIEGYSKieLr8YfCr4whQPI9D4u+LVMUTD0O0MtEyRJD3Q5FeCTpWbc6YiNbUytxdzTQRJbnV4MS2KRIRAnjYaiJCyreVxW2BiDpatP9cU5ukdri60AlQPA3vgFTEc9wc1CD3rKyRyuZ+FU3G8NCexbSJ6Mq55VabiDBeteJgW+DjVZ5wUlyJObRoxeNlB/GF0XOQbRfuhEhE2kQ0ckww9pftxRmJCK1yjLWrqEhhnIzj4tG1jrnRENC2nvS72WFsQ7J5LiTgRYDi6UXHY51f8cTDNmYOWhc1B2XyAYznmDYRXb+wUk14R0ouWxacnzYRIZk20prZuqCe6jsHZeGeFmUiKo70qCAQ2T5ffQ9hHvCdy6uVwSyI7kmT68C5IKwghh1siUSEewrCjpfUIHQc14iXFi4k4EWA4ulFx2OdH/FU5qBmhzmorkfQFZfpZaKJKGKniWhwVJq7h6yYP+hVH3gg17UPKPNQa08wY2pex0u0DvdSaUN0TvAdy8fSmYUYieiIjkS0tEq5qYMau090/fyeBGwjQPE0rJFk4qnNQXDABm0O8nvKbiYiiAGX1AiAWVf/sIrihFZJWIs2ESHsoT0mogaZsj6iYi2HbSIKql5auocELwdcSMCLAMXTi47HOi/xxEMOXXwxc1B9rxov89hdxlbBRITUW7ZGIsrYhefpjrWJCEnSN5Z1SFtPsHMcU8GG1rCNJqJUrsFt2z013fLMtka3VfyOBGIEKJ4xFKl9SCSeeKDoyEHj5qAQmysiKuQfIhHBRITpImEkgU6NLrf2IqBNRJH2ARUwwGvbTK9zmoiQzgxj2OHe7elfMaeqpM+wEPZA8TSsZTfxxFjjgboeFacWzj/TyEGGp5SwGB5mGJNCnka0FBChhUtuE8C9hi5kG4RKm4gQ9AM9HEEZd8KqIYpnWORz67gUT8P6ihdPjHFCONHaREonjJlkwxzk9/TxsMW8UrSM6ST0S43b+SWAKStwdWOaR5jjwn7P12u7sMQTzxCMt3LJDQIUT8N6coon5lbuqe5WsWpn7WiS0sbUg7wbngaLkYA1BCCaeEnL9SUs8cQL9zNbG2T5wTYVHKNvkD1ENt9LFE/D2tHiuWR/i0olBkctwu4hbq2NqbcML5PFSKDgCIQlnohs9KeZpfK3WWUybWNE1pd2qIAq+eJizrcbieJpWKNaPB9cW6uSWGOsJ5MJeg1Pk8VIgARSJBCmeP5+eon89JGD6ufiZ0pV4PvtlZ2qOxcufg65pFiZGdyc4mkIV4vnb54qkcc31kukI/fHegxRsBgJ5BUBW8TzZ1MOyrmPFstvniyRSUuqZHN5hyAhOBc7CFA8DeoBsTRXH2qT3z9dIr94tFjwtohYrTc8X8kfMuA9kOP3wCXPHpELHzuU9XpEd+25U4tjLU/dAv35lIPyy8cPy19nlcmUojrlr8AUIS7hEqB4GvDXkV4Q2HzRvhb+kAHvAd4Dad8DyORy4eOHXMSzWH795GG5dUmVLN7forIRUTsNHtwBF6F4BgyUuyMBEiABEwIwDDnHPM+bWiz/N71Ublx0VPkqEOgE8ZUpnCZ0gy9D8QyeKfdIAiRAAikTgHj+YXqJGuf89ROH5fI55fLYxnoV3ARGIXbUpow0owUonhnFy52TAAmQgD8CEM8/ziiVP804IpgvjghlSN9Hh60/ftneiuKZbeI8HgmQAAm4EKhu65eVxW1yuL5XJYlHNDAu9hKgeNpbNzwzEiCBAiIAIyLGNOmkzY1Kp3jmRj3xLEmABEiABCwiQPG0qDJ4KiRAAiRAArlBgOKZG/XEsyQBEiABErCIAMXTosrgqZAACZAACeQGAYpnbtQTz5IESIAESMAiAhRPiyqDp0ICJEACJJAbBCieuVFPPEsSIAESIAGLCFA8LaoMngoJkAAJkEBuEKB4xtXTsWPHpLu7W55//nm54oor5Ec/+pF8+ctfVj+/+tWvZMqUKVJcXBxXir+SAAnkC4HBwUGprKxUf+s/+MEP5Pe//70sWbLEistbunSpOh/9TEr0P55TjY2NsXN+/PHH5bzzzos9y3S5//mf/5ELL7xQJk+eLJs2bZKurq5YGf2hrq5ObrnlluPKYh/f/OY3Bc/Fu+66S/bu3Ss9PT26WN7/T/F0VPHo6Kh0dHTII488It/5znfkne98p5x88slywgknqJ/Xv/718slPflL+/Oc/y759+6S/v99Rmh9JgARynUBzc7NAoPA3jr/1V7ziFfLhD39YHnjgASsu7cEHH5R///d/jz2T9LMp/v+///3vUlVVFTtn/P6Od7zjuHIvetGL5NRTT1XX+L3vfU8gskePHo2Vwwc0Fn7yk58cVxbHfMlLXiJ4LoLR+eefL/Pnz5f29vYJ5dP5Zc+ePYr9jTfeKBUVFTIwMJDO7gItS/F04IRwLl++XD772c/K6aefLmeeeab813/9l+CmwhvWRz7yEXnd614nb3rTm+Svf/2rqszhYWZ2dyDkRxLISQLocTpy5Ig88cQT8vOf/1ze//73K5F6+ctfLh/4wAfknnvuseK67rvvPnU+EPUvfOEL8q1vfUu+//3vH/fz1FNPCV4E9PKnP/1JzjjjDPVcO/vss9UzDeW+8Y1vqP28+93vlhe+8IXy+c9/Xp599lnp7e3VRVVD4ZxzzpGXvexl8i//8i+qYaGP+d///d/ysY99TD0XX/nKVyoBRQs2qAXX8YlPfELe+MY3yqpVq6SzszOoXae9H4rnGEK0Og8cOKC6aV/1qlfJhz70IdVVgbcw/GGh0qZPn67E9MQTT5SXvvSlMm/evEDfstKuTe6ABEjAiMDIyIjcdNNN8tGPflQJ57nnnqt6oN72trdZKZ7oFVuzZo1rN6sbAC2eaAzs3LlT8LzD0tbWJps3b5Zrr71WCSCebRdffLF6kdD7QS8bxBMC9r//+7/S19enV0lDQ4PMnj1bifBrX/taee973yu33nprbH26H6ZOnapatW94wxtk0aJFVj1vKZ5jtQtxnDVrlhLFF7zgBeoPqaamRvBHhQUCim5adN/gJkJ3xfXXXz/hJkv3RmF5EiCBcAgMDQ3Jxz/+cfnud78rc+bMkUgkolo6//qv/5rX4onnGq4dXaK//vWvVcsUrVnnGK+XeOqhrpUrV6oGB7qBf/aznwVWiRTPwFBmbkcQyrvvvlt1XaCbBq1K3FTxC9720GWBmwRvY1u2bInfhL+TAAnkGAGIwIoVK2T79u3S0tKiWnRr166Vd73rXXktnrqampqaBOOK6NpFV+7ChQv1qli3rVvLExuBHcY5P/e5z6lxUZgs4xeYl9ByvPrqq1WX8Ve+8hX5+te/Lj/96U/lzjvvFIxtwqiJBaajuXPnqi5gdJ+jOxg9fRjr/dKXviQo+5e//EVKSkpijRuUq62tVd3uaGV/+9vfVtvhZQhDbBjHbm1tjT+ttH5ny3MMH7psL730Unnxi18sP/7xj2Xr1q2uYFFh11xzjaB7AxW5evVq1+34JQmQQG4RgBlF9zTBdVpI4omWNlzF6B6FWRJioxevlie2gTu5tLRUjU2edNJJyr2ry+J/PFvh5v3a176mXkYwjgyzEZ6heogMZiMcE3UAIUZDBi8u8UYo/TvGe7dt2xZr4KARc/nllysBf8tb3qLEFttinBYvBBibhRG0vLzceWppfaZ4juFDRVx00UWqOxZvNQcPHnQFC9v2/fffr1qon/nMZ9TbquuG/JIESCBnCdgunhA5jFM++eST8txzz034geMV3bDOJdGYJ8Yvq6urVUsP3davfvWrVfftrl27YsW9xBNDWYcPH1atVpiJ0FK87bbbYmXxAQYktGZhSvrUpz4lmB4DEya6h7/4xS8qty9al3AEowcQLU+0UiHmZ511lpxyyilKBPG8xX5Q9qqrrlJDZnjZQRkI59vf/nb1g33C4InttKEJog4j6NNPPx3YLAmK51g1Uzwn3O/8hQQKmoDt4qlbYG7/Q4gefvjhCfWnxRMtNsxhh7jCDIkeNrQKIThoCb75zW9WjQPnfE0tnqeddpoaqkLvG8rq8pMmTRKsg/D+5je/kR07dkw4NrpgcXx0C2M2A0xKWODoRTc5WqSvec1r1L6LioomlPUz5onpNegyhonqb3/7mzJE6S5gdEfj5eLf/u3fBC3eP/zhD+plYcJBDH+heI6Bo3ga3kEsRgJ5SCBfxRNGR4gc5nbiBw5ZiC2+hxBDfCCWMBLpRYsnprKgGxTT9ZzlMRce6+BQXrduXawrVZdHVyx4QpDRxaudvjgGxpchvhA+jIEuWLBAF1P/+xFPGJ3e+ta3qpYmxj1xDH3+OBam7OAY6AZGlzTMTUEsFM8xihTPIG4n7oME8oOA7eIJ8w6mhMAZDGes8wfGJ3TFOhfd8oxvqWLMEV2t8HkgKhGGq5ytTuxDi2d8Wf075pxiCsyyZctUkBnncfVnzKFHKxddur/73e+U0KEM5pxiegu6VdEChVHTufgRT3T/wlAEJtjfV7/6VXU+2D9+/vM//1MdQ59n/DGcx0vlM8VzjBbFM5XbhtuSQH4TsF08Ted5ovUF8cI0uxtuuEE5XREYAuYotALdgr5o8UQLFWOQMEyi7CWXXKJC9mFMEhGGHn30UTX+GH9nwIyEcc8f/vCHqvsUAWjQgtXiq/83FU8IpN5Hsv/RunU6iePPNZXfKZ5jtDBxGDcV3LYXXHCB6jd3Awm31s0336zGB/BGg6krXEiABPKLQL6KJ4TGGSTBT61p8YyfqoLpJwgcg9Yepu4h1i1adfEh9GD+QesQXcNoZWJ8FcYfTCPB/x/84AdVGNR0xBP7RvhB7NPrB8/u3bt3+7nspNtQPMcQ6akqGDRHuCnYpnW/uZMiQk8hwDJuFoTxwoA3FxIggfwiQPEcr89E4okt0B2LZyVak3h2ojXqjKmLufKXXXaZGlfFFBLM6YSTV4fZ09NSEIzCVDxRDoajX/7yl64t5/ErCfYTxXOMJ8JMwaGGZj9an/jsjO+osaOLA5ZovOngLSbIeUP6GPyfBEggXAIUz3H+XuKJBgZMOpjmh+kzGG9EuD69IKg8Ig5BXBEQAe5XCKpumAQhnpiSAictumSdUeH0OWTqf4rnGFk4tBB4GDcAWpXoinjsscfUOAAqGo4tOMEQVQiD7JjTtH79+glxHjNVSdwvCZBAdglQPMd5e4kntgIrGJdgPELSDGSkwVQRPDcxnQXDYDD0IF44ghnAkISuXQRWeOihh9R4aTLDEFzBGGfF/nA8iLA+BoL2I/oQnsl//OMfBdNd0CLGgnmoaAljigzmgsa7ecevMvVPFE8HM+Tww0RdzHWCHRtzhxAkGXk9/+///k+9VaGC0MWACcrOfHmO3fAjCZBAjhHAlAY8WDGl4corr1Qh3TAsg4c2Um6hRYXv8YMHPh78YSw6q4qpYSjIMU99/TAZocWH3KdghWPAgIkABhA4zO9EgH0YjuDqRRAaPGchqp/+9KfV95jq4tZtizmpCKoA8UV2ld/+9reqaxjdv2VlZeoYGMNEyxfCjV5BtEThLkZdYeoNprJgH1gXH8BBX4PJ/xRPBzUdLQOZAzCpFn84aIWiKxf/Q1DxhgNBxRuQW+xbx+74kQRIIEcIQAAwwR8vzl6OTSSNQJQcZ+D0bF4iElOgBYcXePR86WAAyc4B8V0hHhAoxJHVcy2TlcN6TF+B6IENhAjPSbcFCbHhukVscITX08Yh9OhhPBKGHoggGGLYC89XRB1CrFo8W93EEy8pSMSNsnDooiy6aGE0QvJt1BuiJKGrGDF1kUYS+8XQG+oR47AQbYTog5cFvYlBLRTPOJK4qfBGg8qHQwyVgQm4cInhjQZvnWihciEBEsgfAmgloVsPD1j8vSf6QQsKQcfDctnPmDFDCQfybqI71ZkezKs2br/9dpWrEzFk8XzTY45eZfQ6PO/QYEBycPS4aVHU6/X/MAL96le/UtNZYBzS54b/EXUILUHkRIaIw2GLgAVolW7YsEGF0UNLH3NF4xeE/0M4PkyTQVnUEfaFUKn6JQDHAA+0SLHf973vfaoO3/Oe96ghOLw8YIoKygS1UDxdSOJtBv3yiMKPrlmYifA/wkrBRKSDR7sU5VckQAI5SgAOUHgb8Pfu9YPnAjwSYSwQCRwf5+k03iQ7F7RQUQYGHTzfUlnwvMMYIspjvDGR8OJ8sH+MR4Kl3g7/Y50eqwRbbIPrwHmBJT6jrJsw43x1WTyH9Xk4n8P6GNgf9uV8bmP+Ks4HLWZnmVQYuG1L8XSjwu9IgARIgARIwIMAxdMDDleRAAmQAAmQgBsBiqcbFX5HAiRAAiRAAh4EKJ4ecLiKBEiABEiABNwIUDzdqPA7EiABEiABEvAgQPH0gMNVJEACJEACJOBGgOLpRoXfkQAJkAAJkIAHAYqnBxyuIgESIAESIAE3AhRPNyr8jgRIgARIgAQ8CFA8PeBwFQmQAAmQAAm4EaB4ulHhdyRAAiRAAiTgQYDi6QGHq0iABEiABEjAjQDF040KvyMBEiABEiABDwIUTw84XEUCJEACJEACbgQonm5U+B0JkAAJkAAJeBCgeHrA4SoSIAESIAEScCPw/xR1xEVsIskIAAAAAElFTkSuQmCC;" vertex="1" parent="1">
          <mxGeometry x="463.95" y="609.49" width="126.99" height="99.01" as="geometry" />
        </mxCell>
        <mxCell id="6XLEAazFI10cdfCFDWLp-33" value="" style="html=1;shadow=0;dashed=0;align=center;verticalAlign=middle;shape=mxgraph.arrows2.arrow;dy=0.6;dx=40;notch=15;fillColor=#dae8fc;strokeColor=#6c8ebf;rotation=90;" vertex="1" parent="1">
          <mxGeometry x="473.01" y="530" width="108.87" height="31.62" as="geometry" />
        </mxCell>
        <mxCell id="6XLEAazFI10cdfCFDWLp-34" value="" style="html=1;shadow=0;dashed=0;align=center;verticalAlign=middle;shape=mxgraph.arrows2.arrow;dy=0.6;dx=40;notch=15;fillColor=#dae8fc;strokeColor=#6c8ebf;rotation=90;" vertex="1" parent="1">
          <mxGeometry x="850" y="530" width="108.87" height="31.62" as="geometry" />
        </mxCell>
        <mxCell id="6XLEAazFI10cdfCFDWLp-35" value="" style="shape=image;verticalLabelPosition=bottom;labelBackgroundColor=#ffffff;verticalAlign=top;aspect=fixed;imageAspect=0;image=data:image/png,iVBORw0KGgoAAAANSUhEUgAAAc8AAAFpCAYAAAD6PaPYAAAgAElEQVR4Ae2dB5gcR5mGDSYagwnGJvuAA0w44DA5cz7g4I4cTHY4AyadAROccQ5ykhNOsuQoS5aVrZxXOeeVdrVBm2Zzzkn/PV/N1mzvqKenp6Znumbm6+dZaXa6q8Nbvf11VX31/ycIFxIgARIgARIggZQInJDS1tyYBEiABEiABEhAKJ68CUiABEiABEggRQIUzxSBcXMSIAESIAESoHjyHiABEiABEiCBFAlQPFMExs1JgARIgARIgOLJe4AESIAESIAEUiRA8UwRGDcnARIgARIggZTEs6ioSK6//vqUfzZs2CAdHR3S2dkpmzdvlttvv911H4888ogsXbpUjhw5clzNDA4OSnV1tdx9992uZe+66y556qmnZOPGjdLe3i6jo6PH7YNfkAAJkAAJkEAQBFISz2uvvVZOOOGElH9uvPFGOXr0qFRVVcktt9wir33ta1338Y53vEO++c1vyg033CBbt26V/v7+2DV2dXXJmjVr5C1veYtr2de85jXy4Q9/WC644AJ55plnJBKJyNDQUKx8Oh+OHTum9rdp0yZ1Xo2NjensjmVJgARIgARynEBK4okW4+tf//oJP69+9avlZS97mbzgBS+Qk046SQlj/DZoFaLVWFFRIVdffbVA6FAGZfW2p556qvod37/qVa+Sz3/+81JWViYjIyMKMVqTixcvlje/+c3yohe9SF75ylfGymIf2CeO/9KXvlTe9KY3yXPPPSfNzc2BVM/w8LDMmDFDPvGJT8h//Md/yNy5cwPZL3dCAiRAAiSQmwRSEk90vaL16PyZM2eO/PCHP1TC9bvf/U7Wrl07YT22RXctBMgpnt/97ndl1qxZalu0Svfv369ajD/4wQ+UMEIMIbooj8Upnu973/tk0qRJE44DYf39738v73znO5WAnnPOObJt27ZAagUt2KlTp8pHPvIR+dznPifTp08PZL/cCQmQAAmQQG4SSEk83S4RY4znn3++nHzyyXLZZZdJaWmp22bqO6d4/vznP5d169bFtoVANTU1ybx58wTChxbk97//fdm+fbvaximeH/rQh2TKlCmxsviA9RiTvfjii+WFL3yhvOENb5D58+dP2Mb0F5wbjgfx/OxnPytPP/206a5YjgRIgARIIA8IWCOemiW6ajHm+eIXv1h13UIQsSQTT2yDFi5ahXpcFmOf8Uttba1qHaMliePgB63YadOmCYxNOI7uKsY4644dO+S6666T73znO6o7+IwzzlAtbV0WLe/KysoJh8GYKF4qsE+9HVrRzz77rOzdu1f6+vpoaJpAjL+QAAmQQG4RsE484bSFoxfi+aUvfUnWr1+viPoRT4gSxAzjrxg7RbewXuC+hTA/9NBD8pOf/ETe/e53x0QW2773ve9VLWiMbba0tChxq6urk/vvvz+2nRZl5/9oJa9cuVIdBsYidEE/+eSTal9nnnlmrCzGdz/5yU/K3/72N1m+fLlAmLmQAAmQAAnkJgFrxBPiNjAwIKtWrZKf/exnqtv2e9/7XmzcMpl4Ykz1wIEDctVVV6lu2/e85z2yZMmSWK3AuQuzEsZLX/GKVyhzEkxK+IH7F9+hq/iNb3yjajVCiOvr6+XRRx9V26BbGkYliDrMSrrshRdeqLqfIZwoAzfxBz7wASXep5xySmw7fQyYoT760Y+qc9Ut3NhJ8gMJkAAJkEBOELBCPCGcaOVhvPNHP/qRGj+FQKFrFQKGJZl4QjgvvfRS5cZFSxLTapzzRSGef/7zn+WnP/2pXH755coxi1Yifnbu3CnXXHONMhvBsXvfffcpdzDEDS1EtFhvvfVWJYof+9jH1FxTXRaOXuy7u7tbdftiPBZTbn7xi1+oVrDeDtNcIOzvete7lLnq3nvvjZmhcuJO4UmSAAmQAAnECIQmnm9729vkC1/4gqB1Ceft1772NYEwnX766fK6171OfV9cXCwIjoDFKZ5o0Z111llqG5THz9lnn61EC/NA0RrcvXu39Pb2xi4UQojxRoxhlpSUSGtra2wdWrwIzoD9vOQlL5Err7xSDh8+HFvvxzBUU1OjxkZx/jBDYX/o/tULzgVzV//yl7+oljG2we9cSIAESIAEco9AaOLpHDfEGCW6TGHGwTzKSy65RM3pdIqfUzydZZ2fIVwYg4RZB12obgsEDQ7emTNnqvFMdLMiiMNvf/tb+fjHP67EEwJ38ODBWHE/4glBxpQdCPsXv/hFdQ3Yr/MHLeNvfetbSjwxnqvHSmMH4gcSIAESIIGcIBCaeGJsES3Nr3zlK/LVr35Vvv3tb6tWGRyp8e5VkHSKJ7p03//+96uyX/7yl5URB4ES0CWKrll0lULwnAvGJNHFOnv27JhQYjoLxjGdAoyWp4l4QmxxLhgbde7P7TNeFhAEAsYhLiRAAiRAArlHIDTxjJ/nmQydUzyd8zzRHYsuWoyVIrDC29/+drnpppvUnFEIpl4gpnDfIkoQTD8QOWyPLmL8oMWIsdIgxBPjps5962Po/2E2QjAI7STW58j/SYAESIAEcoNAzosnMGPMEqYfjHVCGN/61rcqYXJ2+/b09KiWIVqt6J7F3E7MIUVQBwRvgFkJU1iCEE8Ei8D5YL+JfmCEcsbuzY3bhWdJAiRAAiQAAnkhnrgQCOUTTzyhpoGgBYngBHDJ6nUwCqFbFy3TK664QnUNQ1B19hWE8rvooouMxfPQoUNqPBNTUdDti9+5kAAJkAAJ5CeBvBFPVM+uXbvkD3/4gxrHxJjiihUr1NgnppHARARDEsY5IZ4IBYgFrT84axEBCF26yVqeH/zgB+W2225ThiSYkjCVBf8jchHMQdg/4t9iKkp5eblaB4GGa7ihoUG5fTGui2NCvLmQAAmQAAnkHoG8Ek8YgtD6xNgiumcnT56sBAvChVYoumvRKoUbFpGGYNhBhhQET/j0pz8tJ554oqt4IgADsrR86lOfUlNpYG7C7/hBUAcYnNDyRVctYt8iIMJnPvMZJaYwKGHayoIFC+SBBx5QZiWINNy+EFMuJEACJEACuUcgbfHE5H/k0PQTGB4i849//EOZaWAY0nFr/WCDYQgRg5CSDHk74wPD631gLufXv/51FTHovPPOU4ELsA4tTEwVQeQhjIvC8QonLILI43cYfE477TRX8UTLEWOjCFSPKTUoo8v++Mc/VgKKY0Bk0SpFAHmItNPJi+NBnFEe5iQEl9etX33u/J8ESIAESCA3CKQtnhhLRCoyP+KJnJ4w6qBl9stf/lK2bNnimxK6R5GFBUEQECMW8WPdFrTmEFIP3adoaT722GNqMwggzDt33323ipmLcHwQNOT+xBQTiDoCwLt122IHcOtCvM8991zV+kRZTLdBtCIINha4eyHyaGWi+xgir6eqvPzlLxfEukWEI3TpIqISw/MpbPyHBEiABHKOQNri2dbWpsYa0T25b98+z4Dn6NrEWB+crRBdZ5SfZOTQqkO37MKFC1VLT+f5jC+HLlpE+4GALVu2TI076m0ggJgDihYvAshj7BH7QzYVtCwRzg/TWfbs2aMytOhy+n8EWMC4KvatyyIsILK5OBdsh+8RBAHds/gBH5wPunbxEhE/D9VZnp9JgARIgATsJpC2eNp9eTw7EiABEiABEgieAMUzeKbcIwmQAAmQQJ4ToHjmeQXz8kiABEiABIInQPEMnin3SAIkQAIkkOcEKJ55XsG8PBIgARIggeAJUDyDZ8o9kgAJkAAJ5DkBimeeVzAvjwRIgARIIHgCFM/gmXKPJEACJEACeU6A4pnnFczLIwESIAESCJ4AxTMNpv1DozI8Op5wO41dsSgJkAAJkEAOEaB4GlQW5HJo5JhsONIh1a0DMkIBNaDIIiRAAiSQuwQongZ1B+Gsax+U658/KksPtEp777DBXliEBEiABEggVwlQPA1qrrVnWObtbpbfPlUidyyrll1VXQZ7YRESIAESIIFcJUDxTLHm0ENb1tgnf51VJudOLZaLniyRZ7c3ysDwaIp74uYkQAIkQAK5SoDimWLNNXUNyaJ9LXLe1GL52ZSD8vMpxXLb0irZX9uT4p64OQmQAAmQQK4SoHimUHPHjonsru6WmxdXyU8fORj7+eOMIzJ9a4MMjxwTem9TAMpNSYAESCBHCVA8U6i4zv4RNdZ54WOHYsIJEf3Fo8VyzYJKqW0fUC7cFHbJTUmABEiABHKQAMUzhUpDqxMGIWerU3/+w/RSmb2zSTr66LxNASk3JQESIIGcJEDx9FltCIaArlk4bLVgOv/HGOhfni2TypZ+zvv0yZSbkQAJkECuEqB4+qg5jGOiRQmj0L2ramTyimq5c3m1oPv2yrkV6vfJK2vkn2tqpaShV/qG6Lz1gZWbkAAJkEDOEqB4+qg6iGf3wIiUN/XJ3ppu9bOzqksufqZUtUb1d/tqu6Wxc1AGOW3FB1VuQgIkQAK5S4DiaVh3g8PH5O/Plcn60g7DPbAYCZAACZBArhKgeBrWHMXTEByLkQAJkEAeEKB4GlYixdMQHIuRAAmQQB4QoHgaViLF0xAci5EACZBAHhCgeBpWIsXTEByLkQAJkEAeEKB4GlYixdMQHIuRAAmQQB4QoHgaViLF0xAci5EACZBAHhCgeBpWIsXTEByLkQAJkEAeEMh78ayqqpIZM2bIRRddpH62bdsWSLVRPAPByJ2QAAmQQE4SyEvxPHbsmHR3d8umTZvk5ptvlrPPPltOOukk9TNz5sxAKoriGQhG7oQESIAEcpJA3onn0NCQ1NfXy5IlS+SCCy6Qs846S8444ww54YQT1M/TTz8dSEVRPAPByJ2QAAmQQE4SyDvxbGhokClTpsiZZ54pp512mpx33nly6623Ujxz8vbkSZMACZCAnQTyTjwPHDgg55xzjnzjG99QIlpaWiqLFi2ieNp5//GsSIAESCAnCeSdeDY1NcncuXNl1apVUldXJ8PDw7J69WqKZ07enjxpEiABErCTQN6J58jIiPT29sro6HhOTYqnnTcfz4oESIAEcpVA3omnW0VQPN2o8DsSIAESIAFTAhRPQ3JOt+2xYyIjo8dkOMnPKDZ0LPg9WRmsH51YzNexUM55OOzCzzliG+fh/F4byjkX/Jqta8Nx7by2eCZZrG+f96RbvflhmSv3svOeTOVejrudnbvhZxJQBCiehjeCUzx3Hu2SmxYdlUtnl3v+PLu9Ubr6R2JHXLK/Ra5bWOlZBvtce7hdegej3dB4ADy2MSL/mF+RtFxxpFcGhqPlGjoHZdLSKrlyrvc53rm8Wlq6h5Tw4UT31XbLzYuPymVJru2pLQ3S2Td+bSuL2+T655Nf2/KDbdIzMF5u+tYGuWZB8mvbU90t/UPRa2vrGZLJK6vlqnne5W5dUiWRjkEZGomK2uH6XnVtl8/xZjJ1Q0Q6+oZjLyNFpe1yg49re35vi3Q7ru25HY1y7YLkTLZVdknf2LWBzT/X1MrVSa7t+oWVcrSlP3ZtFc19csuSo5Ls2h5aVyftvcOixXBLeafc6ONenrurecK9vGBPs697eWNZh/SN3cuDw6MyZX1d0nsZ9XqksU/wN4elpm1AUJdXJLmX711VI229w+rFCuV2Vvn7O8XfwKpDbepvYOLrjzo8/yEBRYDiaXgjOMUTwrS5vFPWlbR7/uBhrR8AOCwecHiYJCtX3ToQeyii3P7aHtlwJHk5iKBuWfQMjsjWik5ZX+p9jtvHHtz6zbupa8jXtR2s64kJNc4RD/JNPq6t0vHAR7niiL9ra+waF3iI6I6jXbK+1JvJlopOJdRaKFp7hgRikYz/vtrotekHKR7efq6tvKlvQr0dbuj1Vd/1HYOxlxcI/a6qLlmfpL5xPnh5GR2rOIg9rhdC73V9eAkZGBqNvRjUtQ/I5nJvjthfacO4mKHeIG5+7uXa9gEZHnt5wb25t6Y76b2MenWKIF5AcS8nuzaIJe4N3QOT7O8UgnnXimr1ovLk5gZVVv8d4Bq5kICTAMXTSSOFz07xTKEYNyUBErCMAF6KIOh4kXh6S4Pqjbh/da109o23Wi07ZZ6OBQQonoaVQPE0BMdiJGARAQgnusjLGvsEXdgYNsD/GOJArwvG7bmQgBsBiqcbFR/fUTx9QOImJGA5AbQ4y5r61Pg8xrbxGV3kFE/LK86C06N4GlYCxdMQHIuRgCUEdFctWprTNkQE4+8wMVE8Lakgy0+D4mlYQRRPQ3AsRgIWEIBwwmSGMU78oMWpnekUTwsqKAdOIe/Es6urS7Zv3y5Tp06V+++/X/1cfPHFsfB8559/fuz7hx9+WNrb242qieJphI2FSCBUAhjBhIMZ5iBMr5qxrUHgFHcuFE8nDX5ORCDvxBPJr6+77jo59dRTY4Kp05HF/3/yySfL4cOHE7Hx/J7i6YmHK0nAOgIxc1BTnzy4rk61OOOFEydN8bSu6qw8obwUz+uvv15OP/10OfHEEz1/TjnlFCkpKTGqGIqnETYWIoHQCMSbgzAP122heLpR4XfxBPJOPAcHB1Uy7H379smuXbs8f/bs2SMDAwPxTHz9TvH0hYkbkYAVBI4zBzX3x8Y440+Q4hlPhL+7Ecg78XS7yEx8R/HMBFXukwSCJwAjEEIeKnPQ1qg5CK7aRMvBSI/M2dnEIAmJAPF7RYDiaXgjUDwNwbEYCWSJAMLyITwfQvnBHITY0m5jnPGn09ozrNy3EFgd2i9+G/5OAhRPw3uA4mkIjsVIIAsEIHoIyn+grkfuXlkjM7c1qvi7WTg0D1EgBCiehhVN8TQEx2IkkAUC6KqFcP79uXJ5bkeTICA9FxIIkgDF05AmxdMQHIuRQIYJoKsWWY7uW12rhBOZYnQaOj+HRlYbnfKOoW39ECvMbSiehvVO8TQEx2IkkEECEE6k63tiU708t7NJ5f5MRThxaruru+XxTfUqz6lO6ZfBU+auc5QAxdOw4iiehuBYjAQyQECbg5DDFMI3e2eTVDT3Gx2JU1WMsBVcIYqnYZVTPA3BsRgJBExAm4PgpJ28ska1OE2FE6dG8Qy4gvJ0dxRPw4qleBqCYzESCJgAzEH7a4MzB1E8A66gPN0dxdOwYimehuBYjAQCJBBvDoKrNtUxzvjToXjGE+HvbgQonm5UfHxH8fQBiZuQQAYJoMWpzUEY46xpS184cboUzwxWWh7tmuJpWJkUT0NwLEYCaRLQ5iBEDkrXHOR2KhRPNyr8Lp4AxTOeiM/fKZ4+QXEzEgiQwOixY9LVH40cNHlF+uYgt1OjeLpR4XfxBCie8UR8/k7x9AmKm5FAgAR6BkZkW0Wn/HVWWcYiB1E8A6ywPN4VxdOwcimehuBYjAQMCXT1D8vqw21yz8oaWXagVRAJKF1zkNupHGnsk6UHWlVsXLR0uZCAGwGKpxsVH99RPH1A4iYkEAAByBe6alcUt8ljG+vl+b0t0tQ1JMMZip2HgPIQZuyf0hlABebpLiiehhVL8TQEx2IkkAKB0dHoGOfaknaZuiEiC/e0SKSDQd5TQMhNM0SA4mkIluJpCI7FSMAnAXSZtvcOy/bKTrltabUs2gfhHPRZ2nwz/G1jbJVdtuYMC6EkxdOwlimehuBYjAR8EoCAYTrKn2cekeUHW6W5e8hnyfQ2q2odkI1lHdI7SAFNj2R+l6Z4GtYvxdMQHIuRgA8Cyhx0KGoOgnmnqWtQhkeyMwIJwf7nmlpp7cncuKoPBNzEcgIUT8MKongagmMxEvAgoM1BK4vb5PGYOShq3vEoFugqTlUJFGfe7oziaVi1FE9DcCxGAgkI2GIOongmqCB+PYEAxXMCDv+/UDz9s+KWJJCMAMw5HX0wB3XJbUursmYOcjsviqcbFX4XT4DiGU/E5+8UT5+guBkJ+CAAc9CW8k655NmyrJqD3E6N4ulGhd/FE6B4xhPx+TvF0ycobkYCSQhgOgrGOO9ZVaMi+zRm0RzkdmoUTzcq/C6eAMUznojP3ymePkFxMxJIQACR71q6h2Tx/hZlDlqyv1WUcGYoclCC0zjua4rncUj4hQsBiqcLFD9fUTz9UOI2JOBOAKHvMBUE01AeXR+RJftblHC6b53dbyme2eWdq0ejeBrWHMXTEByLFTyBkdFjKuDBupJ2uWVJlawqblNCagsYzPO8f3WtahVnKn6uLdfK8zAnQPE0ZEfxNATHYgVPoK1nWFYfalORgxDJBy7b7IQ/8If+aEu/rC9lhCF/tAp3K4qnYd1TPA3BsVhBE0CIvcX7WlRasaLSdmnrHRa0RG1aBoZHVRYXxra1qVbsOxeKp2GdUDwNwbFYQRLQ5qBFe1tUWjHEqoXL1jbhLMjK4UUbEaB4GmEToXgagmOxgiMQbw5CImuYhUyXweFRlV0F4puJZNiYc6pdv3a1iU2JsVwmCFA8DalSPA3BsVhBEZhgDlocjDkIY6QwG2040iF17QOBJ8Uua+qT5QfbBEmx2XVbULdrShdL8UwJ1/jGFM9xFvxEAokIaHPQJTOPyKaAzEF9g6Oyv7ZHrp5XIfN3N6uMK4mOb/I9RPn2ZVXS3MWsKib8CqUMxdOwpimehuBYrGAIxMxBq2qkqKRdIKRBjHGiNajD+T20rk6e29EkDZ3BJcnmPM+CuUXTulCKpyE+iqchOBbLewKJzEHImhLUgj119g0LHLtPbKpXAqrHKdM9BsUzXYKFUZ7iaVjPFE9DcCyW1wRg4EErEKYgRA5K1xyUDBZMQxBQtEAX7GmWSPtg2iYiimcy6lwPAhRPw/uA4mkIjsXylsDwyDHlgkWs2luXVMnqw+1puWr9gkILFBlZ/jG/Qol1JE0TEcXTL/nC3o7iaVj/FE9DcCyWtwTqOwbl+b0t8vfnymRvTbcalwyuozYxNhwDY6A4JgR0/p70TEQUz8SsuWacAMVznEVKnyieKeHixnlOoLZtQObualYxYXcc7cp6hJ4gTUQUzzy/WQO6PIqnIUiKpyE4FssrAvAAYa4lhBPGHYw/ohUYoDfINy83E1GTwXQTiqdv5AW9IcXTsPopnobgWCxvCMAchK5azLWcuiEia0vapbt/JPTri5mI1pqZiHZVdcm0jREr4+6GDpcnECNA8YyhSO0DxTM1Xtw6vwgg5F6kY1Dl4URaMWRHQUQeWxZtIkIgheUHWtW5+k0vhuvaVdUt/UOjobSgbWHI8/AmQPH05pNwLcUzIRquKAACaHEu3Nsilz5XnlVzkF+0ThPRNfMrVesY80D9LJinyrB8fkgV9jYUT8P6p3gagmOxnCcAc9C83c3yzzW1sr0y++YgvwC1iWhzeac8nIFIRH7Pg9vlJwGKp2G9UjwNwbFYzhKAGNliDkoFYnwkomQmIuQYrWjul8GRUUErlAsJuBGgeLpR8fEdxdMHJG6SNwSc5iBEDrLFHOQXsDYRwRFc3tQnSGuWaCmO9Cr3cGd/MLF4Ex2H3+c2AYqnYf1RPA3BsVjOEdCRg5bsb5FbFlep7Cg2mYP8AkULtKqlX2Vh8TIPcaqKX6KFvR3F07D+KZ6G4Fgs5wjortpLZ9tpDvILFD2wmH+arCuW4umXaGFvR/E0rH+KpyE4FsspAkca+2TWjiZ5uKhOdgYYOairf0QwnxJji72D9kxxQeVQPHPqFg3tZCmehugpnobgWCwnCCDvZllTn8zc3ihPb2mQrRWd0jsYnIEG4ol9YgwSImpTNzDFMydu0dBPkuJpWAUUT0NwLGY9gYHhUalq7ZeZ2xrlsY31sqWiU/BdkAsMOzjG1PURmb6lQQmoLS1QimeQNZ2/+6J4GtYtxdMQHItZTQCuWphqnt3eJHcsq5bd1d2BC6cGgPHHmrYBJaBw8O6v7ZHBkWNJxyR1+Uz9T/HMFNn82i/F07A+KZ6G4FjMagKVzdEW5zULKgXjnQNDwbY44y8eAooW6PStDTJpSZWUNWIaSbiTKyme8bXE390IUDzdqPj4juLpAxI3ySkCEEuMccIcdKCuR/oCHOP0AoEuXIyvIjMLBBQt0DC7cCmeXrXFdZoAxVOTSPF/imeKwLi5tQRgDkLgAG0O2lbZqYIIJJvSEeQFIQg7Wp0Y/0QXbpgmIoj3s9sbpaOPQRKCrON82xfF07BGKZ6G4FjMKgLZMAf5vWC0QKstMBE1dw9JSUNv1l8g/HLidnYQoHga1gPF0xAci1lDQJmDWvtl1vYmuT3D5iC/F61NRGh9TlkfUd3HOM9stoL9niu3K2wCFE/D+qd4GoJjMWsIaHPQtWPmIHSd2rBoE9EzE0xEdpybDXx4DnYQoHga1gPF0xAci1lBQJuDHimKyP4smoP8XrwyETXCRNSUdRNRY+egMi2hS5stXr81VnjbUTwN65ziaQiOxUIlgIDoByM98szWaOSgMMxBfgFoExEiHE3dkD0T0d6abhVVCZlYYKbiQgJuBCieblR8fEfx9AGJm1hFoG9oVEobe+XJzQ0qchCEM+jIQUFfcNRENKAcuJgLuquqO+PTWDhVJehazM/9UTwN65XiaQiOxUIhABFCV+2jGyJy3+paOVzfK15puUI5yQQHRdcpIhEpE1FR5k1EFM8EFcGvJxCgeE7A4f8Xiqd/VtwyfALFkR7V9XnH8molRHCw5tIyeiwaNhDdzZOW6khEmTERUTxz6c4I71wpnobsKZ6G4Fgs6wQwhvfUlnrVVatC7sEIk/WzSP+A6GJGIAWniahnIPh0ZhTP9OuqEPZA8TSsZYqnITgWyxqB4ZFjap7kU1saZMa2RoGI5roBJhsmIopn1m7RnD4QxdOw+iiehuBYLCsElDmooVce2xgRiOee6u6cGeNMBmiCiUilMwvWRETxTFYDXA8CFE/D+4DiaQiOxTJOwGkOundVTSDmIIw5QpCRMsyG2RvaRIR8oFOKInKwrkeCikRE8cz4LZoXB6B4GlYjxdMQHItlnACEZNqGiARpDmrrHZai0g45FOmV7v7gxxlNoEwwEcXSmaVvIqJ4mtRG4ZWheBrWOcXTEByLZZSANqd9TbYAACAASURBVAc9vqk+mo8zIHNQV/+I7KjskrtX1siGIx0q40hGL8TnzmEigglqDiIRLY2mM0vXRISg8Iv2tQiuGQLNhQTcCFA83aj4+I7i6QMSN8kagUybg9Al2tA5KHN2NinX7rqSdmsEVJuIntrcoFrc6aYz6+wbjk3noXZm7RbOuQNRPA2rjOJpCI7FAieAxNFoLcEc9OTm+oyZgzDWCQGdtSMqoGiBdg+gdRb4JaW8w3gT0e4sRCJK+SRZIK8IUDwNq5PiaQiOxQIlgFYXxiERfScoc1CyE1Qt0F1Ncufyatl5tMsaAXWaiBDw3tREhMhL4MpWZ7I7obDXUzwN65/iaQiOxQIjgPG47ZVd8s81tfLg2jqpbRtQbtjADpBgR7oFumR/q1w2uzwqoBaZiI629Kt5rZMMTUQIBbi1olP6hjjmmeAW4NecqmJ+D1A8zdmxZPoEIJybyjvV+CNC1lW19AvuyWz1oGIMtK59QCCgdy2vttJEhEhEtxmYiLYf7ZKHi+qktYdZVdK/U/N3D2x5GtYtxdMQHIulTQAOU2REgaN29s4mNY8zjC7GeBNRkYUmImSQmbahXlIxEXGqStq3aEHsgOJpWM0UT0NwLJYWARh09tf2yEPr6mTm9sbQhFNfhO7ChYlo2sZ61QK10UQ0f3ezVDT369P2/J/i6YmHK8cIUDwNbwWKpyE4FjMmABMLhPOeVTXKIFTZ0m+NqUVPY7ljWbXsrOoSzLW0wYWrTUSrD7XL7upuX+wpnr4wFfxGFE/DW4DiaQiOxYwIaHPQA2tr1XhcY9egVbFqcX71nYNqDBQmoh1w4VpiIkIwfPy9Yi6sn4Xi6YcSt6F4Gt4DFE9DcCyWMgEI0+YxcxCyo1S19vsWgpQPlkYBbSJavK9FJq+wKxJRKpdF8UyFVuFuS/E0rHuKpyE4FkuJgC3mIL8nrU1EMDI9trFebDIR+b0GiqdfUoW9HcXTsP4pnobgWMw3AW0OwhzOmdvCNwf5PfEJJqINdpmI/FwDxdMPJW5D8TS8ByiehuBYzBcBpzloyvqIpGIOQoQctFgxxudvlM/XKaW8kTYR3b6sOjZVxAYTUbIL2VzeoQLgt3QPWTWunOy8uT67BCiehrwpnobgWCwpgXFzUJ08UlQnqZqDMCaKCDmYmuHXJJP0pAw2UCaijkFZOhaJyCYTkdflgNvaw+3SM8gIQ16cCn0dxdPwDqB4GoJjsYQE0ErEmCEylkzdEFHzOBE5KFUBRItvZXGbaj2V1PeqJNYJD5rhFbloIkLSb+QvhUs3zJZ7hquGu0+TAMXTECDF0xAci7kSwHxEzI2EcCJy0LzdzVLa2Gs0j7NvcFQO1ffKE5vqlWkHc0OReSWsRZuIdDqzXDQRhcWOx7WXAMXTsG4onobgWOw4AhDOjr5hFeQdmVEgnBjjTGfBmGl5U588sKZWmY0goGhRhbXgGtEiVpGINtTLRovSmcUzwctHa88QW57xYPj7BAIUzwk4/P9C8fTPilsmJoBuQbQ4kR1l0tIqeXZ7o0Q6BhMXSGENuh2RYQQCiviuyPkJM1GYXZHKRLSrSWw2EWHMc/WhtrEoSWHSSqGyuWnWCVA8DZFTPA3BsdgEAujSLCptVyH3EKsWY22jAVpSIaBlTX0qSfbdK2toIppA3/2XTWUdcteKammm29YdEL9VBCiehjcCxdMQHIspAmjPQDhXHWqTaRsiqqu2vmNQdRUGjQhduBgDRZcpBPSwRSYinM+GIx2q2zro6zbdH+d5mpIrrHIUT8P6pngagmMxZQJCVy1anBDOBXuaVfdqJtEoE1HEPhMRIhE9blkkIopnJu/E/Nk3xdOwLimehuAKvFjMHHS0S4IyB/lFareJKKJMRDZkY6F4+r2jCns7iqdh/VM8DcEVcLGYOeho1ByEMU501WZz0SaifyoTUcQqE9FtS6tkd1W3MurgJSOsheIZFvncOi7F07C+KJ6G4Aq4mDYHocWpzUEQs2wv4yaiBjUGal0kosou6QoxnRnFM9t3ZG4ej+JpWG8UT0NwBVhsgjloY2bNQX7xKhNRxD4T0aJ9LXJPyCYiiqffu6iwt6N4GtY/xdMQXIEVQ8MSrah1DnNQugEQgkKoIxEhohFMO7ZEIgrbRETxDOoOy+/9UDwN65fiaQiugIohMDoyc2wq65T7V9fK/D3pRw4KGp82EWEMFGnPrIlEtL1RxffFnMtsm4gQwH7K+jpp64nGtw2aOfeXHwQonob1SPE0BFcgxbSrFq2Y6xZWyoI9LdLUNWTl1dtqIpq7q0lFXcq2iai2bUC2VXZJ3xCzqlh5w1pyUhRPw4qgeBqCK5BiCMS+9ECrTF5Ro/7v7BsWtERtXZSJqBGRiMZNRDA4hbXgfOBE1unMEL4wWyYiHHtweNQoKH9YvHjc7BOgeBoyp3gagsvzYtBHCOfze1tUPNllB1pV120IptqUSbuaiAbDCyYP8a5rHxAbTEQpw2SBvCdA8TSsYoqnIbg8LoaWJbKjQDCRjxP/JwvyXt85qAQiW62qZPh1JCIYiGAksspEtKleRWUC40wu2H9164AKn2hxZ0EmEXDfPghQPH1ActuE4ulGpXC/0+YgxGm9c3m1L+EErYORHpXBY1tFp2qx2vCwdjMR4buwFjBR6cyyZCJC7N+Fe1ukqz/YIP1h8eNxM0OA4mnIleJpCC4Pi+HhjjFNmIOuX3hUjXG29PgzB6FlOmNboxob3VfbIxApGwQUmV2QzgwuXLSiSxv6MhK0PpXbQaczm7SkSnZXZy4SEaeqpFIrhbstxdOw7imehuDysJg2ByFDCExCnf3+XZowp9S0Dajg8NfMr5R9Nd2qBWoDJuT+LGvsk6cKzERE8bTh7rP/HCiehnVE8TQEl0fF0EJU5qB94+Yg5IBM1RwEZydaeciuAncuunBtGQNFS7gYkYi2N6rIPyqdWcgmolqYiPa2qMD6mUhnRvHMoz/SDF4KxdMQLsXTEFyeFMMYZ3uK5iCvS4eAYn7hM1sblVFnc7k9AqpNRI9trJcnLDERNXYOynM7mhQrpHYL0kRE8fS6U7lOE6B4ahIp/k/xTBFYHm1uag5KhgBduBgDfXpLgwqXt63SHhPRwNColDf1qTFQRCI6UBcdn012TZlan0kTEcUzU7WWX/uleBrWJ8XTEFyOF0OXLFo560vHzUGtPs1Bfi9dm4juWlGtpopYYyI6FjURPWCRiQgtUEQiunVJlewJyERE8fR7pxb2dhRPw/qneBqCy/Fibb3DamzyrgxGDppgIloQNRH1DI5YQQ4moiNjJiJkP6ls7lfzIcM6Od1aRySiy+eUSxCRiCieYdVmbh2X4mlYXxRPQ3A5WkyNcfYOx8bZ1pW0i4k5yO/lO01Ed6+oka0VncrF67d8Jrez1USEqE73rqqVdE1EFM9M3j35s2+Kp2FdUjwNweVgseGRY9LYNSjzdjerOY9rS9pVyL1MX4rTRASjjo0moml5aCLCdKHpWxtU9zxatlxIwI0AxdONio/vKJ4+IOXBJuimxBjkiuI2uX1ZtQoPF/QYpxcm3S1pq4mowlYT0fqImKYza+wakoN1PTLA4PBet2bBr6N4Gt4CFE9DcDlUDI0OdM0uP9gqCGCAh3Fnf2bjqibCo0xEWxtV6D/Em7XNRIRIRI+uj6jx0LBbazoS0S2LgzMRJaoXfl+4BCiehnVP8TQEl0PFYA6CkxORg0xbMUFdLgQpFolIm4gG7DMRgZU1JqIDwZmIgqpH7id/CFA8DeuS4mkILgeKOc1BCAwAcxCmp4Qdc1abiObvblaCbm0kolU1YkMkIqQzg4novtWpmYjQckXrngsJeBGgeHrR8VhH8fSAk8OrwjIH+UU2biJqUNF+rDMR1feqPKZPWhaJCIYrv5GIdhztErw0cSEBLwIUTy86Husonh5wcnQVzEH1HYOysrhNbltalXVzkF9sVpuIhkelotmiSEQyns4MY7Lj3e+JXbQY4756XoXf6uB2BUqA4mlY8RRPQ3CWFkOXrNMchBZdWOYgv4h0JKI7ltsZicgmE5GORHTz4qNJIxFRPP3egYW9HcXTsP4pnobgLC0Gc9CcMXPQxrIO6RlAWjFLT3bstLSJaOGeZrlmQaXsrYnmuLThrHUkIkyxsdFEtLu6S9WxGyuKpxsVfhdPgOIZT8Tn7xRPn6As3wwChBbnrB1NapzLjzkIXbswxMBYAnNRmIvTRIRweYhEZGU6M4tMRBBHmInAzm2heLpR4XfxBCie8UR8/k7x9AnK4s3w8MT0D6S2gkEEhpKW7qGkZ4wyqw61qXLoOh0aCV9AdTozKyMRKRNRRJ7cXK9crMiBGtaCFnFb75AKgJCoZ4HiGVbt5NZxKZ6G9UXxNARnSTHUX1VLvyzc26LMQZvLO6S9118ABExbgfHkzuXVsnhfi8rDGbaAahPRU1sa1IsAAqRDpEJuGKvaRqQem0xEyW5BimcyQlwPAhRPw/uA4mkIzoJi6GqtbR9QsWoROQi5KXsH3bvwEp1u98CI7KrqlivmlMuifS3KpRt2Fy7ONWYiWlYtByyMRIR0ZrZEIkpUtxTPRGT4vZMAxdNJI4XPFM8UYFm2KQTmma2Nct+qWuW8NAl1hy4/mIp2VXUJ8m7O3tmkxkDDvlS0QKtbBwQmomttMxGNRNOZ2WIiSlRXFM9EZPi9kwDF00kjhc8UzxRgWbKpDvKOhzfGBmGugQCadm1CQNEChTsXY6bPbm+0zkR07yo705mB1T0WmIjcbk24lmdub3Rbxe9IIEaA4hlDkdoHimdqvMLeWpuDZm5rFKTR2lwW3DxOjIEWlUYFFC1QuHHDHgPF9UZNRPZGIpq6ASaihtBNRPH3JrLmlDf1xX/N30lgAgGK5wQc/n+hePpnFfaWgyMTzUHbKrsCn85ho4lodCyd2kQT0ahxSzvIeoyaiPrl/tW1ghcajDuj+5wLCeQKAYqnYU1RPA3BZbkYulYxpw+JrE3NQX5PWZuILp9gIvJbOnPbaRMR8pFqkTLtqg7yLFE3R1v6BZGIphRF05lB8MNeYPxCjGMuJOBFgOLpRcdjHcXTA45Fq2LmoNXm5iC/l4PnvjYRTV5Ro+aBIpBC2AvGejE31VYTUWljn9hkIqpq7ReEZ+RCAl4EKJ5edDzWUTw94FiwCoKBsUdtDtqSpjnI7yVBQJWJ6EiHPG6hiQgt8HtX1QrSmXX2hxeswMkT3bXFkR5luILBKex0ZpjDizRmXEjAiwDF04uOxzqKpweckFdNMAdtCNYc5PfSMAa63mEiQgvYFhPR9K32mogwB/SpkE1EnKri9y4v7O0onob1T/E0BJfhYmjFVDb3y6K9LTJpSZUg0k5YsV61ieiOZdWyeH+LCswQtoBiPC/SPqgECtNrwKdv0E4T0cGQTEQUzwz/kebJ7imehhVJ8TQEl8FiCBCAKQYztjXK9QujkYMgDGEu0THQbrHWRLTUYSIKE9TYsZ0mokeKIlLW2Jf14PsUTwtuhBw4BYqnYSVRPA3BZbBYWVOfCn7w0Lo6KWnoVVMfwnaVahPRzqNdYpuJyNZIRGidlzb0yfQtDYJMMehJyGaLneKZwT/SPNo1xdOwMimehuAyUAwPVrQ40Q2J8bw91d1R4czAsUx2mQsmIoQqRMQlW0xEfXEmokP1vap72YR/qmUonqkSK8ztKZ6G9U7xNAQXcDE8ZNG1h3RX+EGs2bC7ahNdoo5ENG1DvYqFa5uJCPwwRSOsMeJ4bqjHQ5FeFUg+myYiimd8TfB3NwIUTzcqPr6jePqAlOFNYA460tin5lMiPdj+2h6BmNq8aBMRAhYs2d9KE1GSynJGIsJYdjZMRBTPJJXC1YoAxdPwRqB4GoILqBhco9ocdOPzR1WkGkxRSbRg7BOGIpQLO3YMTES7q8ZNRAikEPbYLLjpSES3La2KiVTYrHBeYKMjET1SVCcY20Y9ZmpZWdwm1y2szNTuud88IUDxNKxIiqchuICK4QH6+KZ6gTmotKFXIJxez9OW7iE1podyYbdOnSaiu1faFYkoaiJqsS6dWdRE1JsVExGCNCBHKxcS8CJA8fSi47GO4ukBJ4Or8BCtaO5T0Xuc5qBkh2zrHRYdOWZ3dbeKApSsTCbXQ+i7+0dkQ3wkIihriAteQtDKm7urWQVttykSUbyJKFORiBAhqtGCsIoh3gY8tA8CFE8fkNw2oXi6Ucnsd05zEPJxpmIOwtgZpjwgZB7SYO042hW6gILWuIkoYpeJqH1AtfJgItpim4movlemIBLRFvvSmWX2L4B7t4kAxdOwNiiehuAMiw04zEGI2GNiDkK8W+S4jOaRrLdmSos2EWGs0S4T0YCKRAR3MF42bIpEhBchpDPTJiLcH0EteElr7x0OanfcT54SoHgaVizF0xCcQbFUzUHJDgEBxXgpxhvR9Yeu4HA7S6PZWNCdrCIR7W0R20xEkyw1ET2wplYeXqdNRMlq3t96OLhXFLf525hbFSwBiqdh1VM8DcEZFEO0IARAwEMSn5OZg5IdArkaK5r7Zc7OJrllcZWoCfgBtlySHd9tvTYRoYWHqDrP7WhSAuq2bTa/Q2u9urXfynRmMRPR1vFIREh8nu6y9nC7ui/S3Q/L5zcBiqdh/VI8DcGlUAzjlPtqe5RwztzeKHtropGDUthFwk3RzYfgCrN3NgnSYGHqCIwiYS7aRLQxzkSEKTZhLvEmInsjEdVGX4TSjGfMeZ5h3m25c2yKp2FdUTwNwfkshrmQB+p6VHSZZ7Y1qjFOBEUIctEmIrRqEcEG8WfDFlBcX9RE1C7TNkRU69iaSETtAyo/qpUmokivIJA88rdiPLx30PxFiOIZ5F9Z/u6L4mlYtxRPQ3A+ivUOjirhhKAhKTHmZqKLLhNLvIkI444Q6cwczf8V2GoiqmvXJqJI3pqIKJ7+79NC3pLiaVj7FE9DcEmKwRyEFidag3DVNncPCQQu04syEW2sV5lPSsZMRJk+ZrL9q0hEMBHNLlf5SW0zEd26pEqKIz2CLvDM11AyWhMjEWF8HBGoTG4dimdy1txChOJpeBdQPA3BJSmGcc1H10eUGxZGFQhnNh7MriaiNMfOklxq0tUTTESrbDQR2RmJCKYyBNDQ6cxSNRFRPJPemtxAKJ7GNwHF0xida0G0XjBWBeGctaNJGT8y1VXregIiqgUFExGcrkjRZUskImQ5UZGINtXLs9sblQs3bBMRxoujkYia5J9rounMrMnGMjSqYvPCZIZ6TDWdGcUz0V8Iv3cSYMvTSSOFzxTPFGAl2XSCOWhroxyM9GRsjDPJqYjtJiIEeMAUGztMRMdUVhiYdBC1ydZIRPtqulUoxGR1r9dTPDUJ/u9FgOLpRcdjHcXTA04Kq5zmoHtXZdYc5Pe00FVcg0hE6yPy5Cb7IhFNWlIlS61JZyZynIkIY6DZ6GtPUqF4EULXf2PXoOpVSLJ5bPX60g5BijsuJOBFgOLpRcdjHcXTA47PVdocNA3moOXV0tIzpNKG+Sye8c20ieiuFdUqOEO2u5HdLtBpInrewkhEtygTUa81JiI3hsm+QwCNdSXtyTbj+gInQPE0vAEonobgHMWc5qCqLJqDHKfg+RFiOSESUaRXxXf1LJThlU4TEYI7WBOJaGQsEtHeqIloT3W3QOhzcUG9pzNPNBevmeecOgGKZ+rMVAmKpyE4ETWPUpuD8PCHocOGVp3bFelIRMpEtLrWmkhENpuI5uyyz0TkVrf8jgTSIUDxNKRH8TQD19k3rFyscNU+E7I5yO8V5ISJaJclJqIRe01EfusbASow5s2FBLwIUDy96Hiso3h6wEmwCqHvkIPz0Q0RuX9NrZrEbmuLM/4SnCYi5BJFt6RNkYgQsMBGExHcwSqdmSUmovh6dfv9YF2PzNvd7LaK35FAjADFM4YitQ8Uz9R4jY4eEwQUf3BtrTy0rk7FkE01+gscnDAZhenk1OnM7lpul4kIYo50ZlaaiBYjElGvetlI7a4JZ2tOVQmHe64dleJpWGMUz9TAYZL/w0V1gonrCDMHEUx1Qai+7ZVdqsUadJB4v+dis4kIbDDdxyYTEYxgC/e0yHULK1VrPRdMRBRPv38Nhb0dxdOw/ime/sDBtbi5vEMeKaqT+XuapaK5T9AKNVnaeoYF6bruX12r0pOF9SCGcOtIRDgXW9KZWW0i2tkkSFxtUzqzRPcgxTMRGX7vJEDxdNJI4TPFMzksGC8w3vXA2lqVNxPZUdIJKwfRQrBvmI0Q1QaiFZaATjARbYmmMwvrXJw1odOZIcDDXJqInGh8f6Z4+kZV0BtSPA2rn+LpDQ7mIOTHnLK+Tokd3IvpCKc+GrpNa1oHVEsWKcsQei2sLly7TUSdgoAFNBHpO8f//xRP/6wKeUuKp2HtUzwTg8N4Jrrn0OJ8cF2dah0a9tQmPAgEFE7Ou1fWyJHG9Fq0CQ/ic4WORISQbqUNdsxZRSvYaSJq7BzMSnaaZMgQk3fGtka5efFRORTpVbGEk5XJ9nqKZ7aJ5+bxKJ6G9UbxTAxOm4OQAaTe0ByUeO/RNWiBohsY5pjblkadr2G1QKMmoj5BcIBbxpylfZakM4OJCJlFaCJKdkeNr6d4jrPgp8QEKJ6J2XiuoXgejyfeHKSSEQfd5HQcFmKJlt6s7Y1WmYiQoss2ExHmpoITWqBBdJ87qiHljxgvRjqz2TARra2zzkRE8Uy5SguyAMXTsNopnhPBBW0Omrj3xL9ZZyJq6ZfHNtYrQxPGfG0yEcFoNXdXsx3pzEaOqWwsNqYzw5DDw+vqEt90XEMCTIZtfg9QPKPsMOmku3/cHDRlfUQwBpjN1g26TatbB9QDT5mIantCy+qhTUQQKrT2EPweAm82Ocf8/owviZebTWUdcvPiKll6oFUJF7iFuaBTQqczgzsYLxuKVbinpXKU4ly4kIAXAbY8veh4rKN4RuEMjxxTD2V0VWbKHORRDRNWqRycNpmINkVTrZU29FkR+N5mE9HMbY1y06KjKkkAunW5kIDtBCiehjVE8RQV7ACtGITbm7erWeo7zCIHGVbBccWUiajRIhNRU9REhLizCE8XvonomOpG3gYT0Wp7TESot1yMRHTcDcgvCooAxdOwugtZPNGr1tk/LCuK21RX6ZL9LVLd2p/VrtpE1WajiWjWjmiKLptMROuPdKhuZRtNRA+GbCJq6hpSLeBE9xi/JwEQoHga3geFKp4QzpbuIcF0lHtW1ahA5BhvNAhVa0g+ebHjTEQhJmbWkYimbbDMRNQ7LEWl7SqAhY0mIoxdb6noVOPpyWs82C12VXULjs+FBLwIUDy96HisK0TxhHC29w7LxrJofFlMdm/qGkwonOiO6+wfkb6hUaNA8B74k67CWKw2ET2JSEQhmohgnsJ4LExEj1tnIuqUmxcdtcZEhJcwbSICrzBMRJyqkvTPixuw5Wl+DxSieMJJuupQm9yzskZNxRga8XaRIprMupJ2QX5EzAENY9GRiCavqFHB3LPpAo6/Xp3O7I5l1SoqEgQ+7AUmor3V3XLZ7Gg6s8auwbBPSR0f9442ER2uz24kIoqnFbeA9SfBlqdhFRWaeCITijYHLdjTrLpuk3XVqlbqkQ65dkGl6oLDOGm2F9tMRAgcoSIRWWgiQoYYWyIRhWkionhm+680N49H8TSst0IRT2UO6huWlTFzUKvqgkwmnMA6ODYRHk5cTDpfX9ohmG+Y7QVjoCUNvYJwgZhSg7mXYQUvwLkgFi+MOkjRtbu6WyUGzzYT5/FQl0hnhvpRkYh2NFkViQiC/tCYiQjnmemF4plpwvmxf4qnYT0WgngGYQ5CVy9CwkG48GCG0QjjoNnusLTNRITwdDQRJf/j0y9gT21pUCaebJiIKJ7J64Vb0G1rfA8UgniilajMQWtq5Zmt3uagZCAxBxQCihbEtopONQaK7CvZXGImoqI6gYloP0xEw97jtpk6PzcT0YBFkYgQsGDZWCSisMdmcZvARIQ6g4loV1VmIxFRPDN11+fXftnyNKzPfBdPPNxhDkLKr+lbGySZOcgPRphR5u1ulqvmVSjhCs1E1BZNZ3aXRSai220yEQ2OqK5tmIgW7m0R20xENz5/VDJpIqJ4+vlr5jYUT8N7IJ/FU5uDME7p1xzkByNaMLXtAypBc9gmIow7YiwNooXxUEynCWOBMUabiKyLRFTRqbLVWGUiaumXhXta5LqFlSpfKZKuB71QPIMmmp/7o3ga1ms+iicCdbf2DMnifS3ycFGdctdifmKQvat6DAsT8x8pssNEBOOONSaitXWCSfqZEIVUbvWcMBGti6YzC9pEBBMXsr1wIQEvAhRPLzoe6/JNPCGcDZ2DsvpQm9y7qkYJaNDCqXG6mYjwAMzuCKioDB5o9SETzPQtDcr5GpYLV+e4nLYhEk1nVmVHOjNMN0IkIjBClzvmX6K1HOaiX8AQBQg/SCEW5MtGc/eQ6o0I8xp5bPsJUDwN6yifxBOtDDwwIJwY41y0r0VFEjJE47tY/ZgLF7FMaSISFRs4FoloYzSdmTI0hatV0qnSmXUKxhptMxFBPLNhIvJ9U3PDgiFA8TSs6nwSTzygMbZ514pqJZxBdtMmwwszyvzdzXLlXG0iCmfsEaI1dUNE7lxercYgbYhEdNvSKmsiEcHcha5tZSLa0yIInm7DoiMR3fD8USnJciQiG66f5xAeAYqnIft8EE+I5ODwqMze2aTGHxEIIdtBDJwmIphAtpR3qpaOYbUYF0NXIExEYGGfiQjhDcN5qdBAMa0IXdroIUCgCZtMRJgzq01EQQSdwIvU9komw9Z1z//dCVA83bkk/TbXxRNjnMiOMn9P1Liz+nCbCmaQ9MIzsIEew4qaiCKCdFnZFnFclo5ENBPRf9bWWWEiwtxYdGtblc5sLBIRBBQBMMJspaPe9HgxUr/BIY4x0HRMRAjEAOZcSMCLAMXTi47H7OJuYwAAHoNJREFUulwWT20OwjzOySuqVeg9mIXCXKwzERXRRJTofujQJqIie0xEMDHpbCzpmog4VSVRzfN7JwGKp5NGCp9zVTzRVYsW5wRzUAjxZhOh1pGI0PLbVtk1Foko0daZ+R5CPp7OrN6eSEQb62VfTXc0KlLIJiL0DGwq6xSMNdpmIkIkIriDTSMRUTwz83eVb3uleBrWaK6KJ8Y4wzIH+UWtTURXzCkfi0QUznifjSaiSUurVGq1sEPmoS4nmoiarTMRXb+wUk05QbduKgvFMxVahbstxdOw7nNNPG0wB/lF7TQR4QFoi4kIIeHCjkQ0d1eTRCMR2WMiwhijlSaivS2C+ydVExHF0+9famFvR/E0rP9cEk83c1DYY5zJsDtNRFOKLDARbYsad8KORFTW2BcLsG+LiQhZcmxNZwYTEaYg4cUHfwd+FoqnH0rchuJpeA/kinjCCYm5cDAHYR4npqPAIZkLi3UmIkQi2mpHJCIIAkLI7bQkEpGtJiLc+whuj0hSFM9c+KvPnXOkeBrWVS6IJ+bmIYrP8oPRkHuIHBTGFBBDxLFiMRPRmlo1/w5jbX4fhLGdpPlhgolokz0moscsMhEhEtHm8k7VVWqLiQjVjhfIVO4XtjzT/GMpkOIUT8OKzgXxRLxP5OHEpP/Vh9qzHjvWEK1rMbSWEYkobBMRXLg2RSJCgnEbTUSXzylXxjRbIhG53lQJvqR4JgDDrycQoHhOwOH/F5vFEy1OCCcs+9M21MvGIx1pTRr3TyVzWyoTUduALNnfqqZHhGYiGh6dEIkoTBMRxoXLmvpEm4gO1tllIkK2GlsiEaVyZxZHelTwkFTKcNvCI0DxNKxzW8UT3YsY50GLc+qGejUXr7Vn2NdVoku3tLFPZVcJO3OG2wkfZyIqDTkSkUUmIkRFemidPenMjjMRdYUficjtnnL7rrN/WAVccFvH70hAE6B4ahIp/m+jeOpxucX7W+SuFTWysaxD/AonLh/zK5F+CvFdq1r7VdzbFLFkfHNcI5zCCFuHLssNY63qbAazx0UilJ9KZ4ZIRFsbVGJmjMWGsejwdOhORmo1BAcIK7Wa8/pVOrOSdhU3GV3ueKmz8aXMec78TAJ+CVA8/ZKK28428VTmoI5BlYdTCeeRjpRzHHb3jyj35rULKuX5vS1S3dpv7cMOJqJZiEFriYkIQn6gtica/SfuXsnGrzDF6HRmNBGlRxwvI/hb4EICXgQonl50PNbZJp7aHDQZLc4jHWLaEkOL6lB9ryDDCcQJImXrEjMRzS2XfbUY7wvngQcTEZJY25DODALqNBHZ0NJDKxjzY2H2WrjHnkhEie5r9CisOdyeaDW/JwFFgOJpeCPYIp7x5iDEG4WQmi6w9ENAdxztEgQnQDcgutt8zi83PaxROQhD7ZiJCImaaSISsd5EtLbOehMRhi5uX1ZldE+yUOEQoHga1rUN4qnNQTO2Rc1BG8s6Uxrj9Lp0pHTCnD04djGmhxaoDa2Y+HPWJqI5u5pUMHBEugljLqtOZ4a6gHEn7EhEyE06c1ujStFlTySiYTWmjpaxSmdmqYmIU1Xi/8r4uxsBiqcbFR/fhS2e6ZqDfFyiSkoNAYUY5IKJCI5Tm0xEiKkaVldyvInIlkhEuWAionj6eTpwG4qn4T0QpnjqyEGL90VdtXCcptNV64VAm4iumV8pi5SJaEBsyOjhds7aRIQg5dstSGemTER1Pcq1HEa393EmIm1oCuNkHBWmIxFdt6BSpTOLtA8IXgZtWSiettSE3edB8TSsnzDFU5uD7l6ZnjnI76UrE1GkV4VdywUTEVKuwZyyryYcExFkAE5luF7DNhHhXGAiQve7jkRkQ/e7NhFdObfCukhEFE+/T4bC3o7iaVj/YYgnWnxNXYMybWO9ChGHMU6MTWZ6mWAiQnD0HDER3bTIDhPRHcuqVVaPsNKZIYerjkQ0aUmVRCMRZf6+8bov0XsCAYXJ60HLTEQUT6+a4zpNgOKpSaT4f7bFEw/AypZ+JZxPbW4Q5FBMJQBCipfnunm8icjWSe8xE9HOJnl0fUSlywrbRPQwTUTH3VOYToUuXLhbnSaisLtwKZ7HVRW/cCFA8XSB4uerbIrneMuhWSavrBG4J7PR4nTjoMer0FqYs7NJdU/i/GxbMN6HSERwnOLBrOP7ms5/Nb0+dHlj3uAjRRF5hpGIXDEqE1Fpu3IG2xCJiOLpWk38Mo4AxTMOiN9fsyWeeAs/2tKvhAqRg/bX9qh5mH7PMxPbYcwVIeBoIvJHVzuj0fq0yUSEpAG4n/Dyk+2Xinhy+qUM0a2QzixME9G6knY1Phx/jvydBJwEKJ5OGil8zpZ4YowTMUvvW1Ur+2q7Q3/IaURoURVHelWGE5tNRDDMoAWqTESIRBSWieiYqHjBThNRWN2TUUNT1ER029IqKWvss2IOrzIRVXfLVfPCNRFhfBjJ47mQgBcBiqcXHY91mRZPbQ56uKhOntxcr1p6vYP2dI8mNBHhyWzZ4oxEFLaJCFlrMGcWOVZDTWfmMBHdShPRhDsWL4ZoCXMhAS8CFE8vOh7rMimeyhzUHJ3q8Pimetl5tEuQJsnGRZmIyqKRiDCmZ7uJCMIFExHmxoZpIkLKOFtMRIiK9EhRnRpLz9R8Yb/3Lt69bDQR+T1/blc4BCiehnWdKfG0yRzkF40er8oZE9FYJKIwTUQVzf1KsKwxEY1NQbIqnVlIJiK8ENqcEMHv3yW3yywBiqch30yIJ8bAqnyYg/oGRwVzBsMaM3NDNm4iqpBF+5DOzO5IRMgHev/qWhUAHyH0sh3gBm5gBFJA6xO9C5h7qYw7bnAz/B3mXOp0ZsgOY5uJCMa05TARdQxm5Z5HViGk5ONCAl4EKJ5edDzWZUI8Y+ag1YnNQejW2lbZJbuqupURxuMUs75Km4iQ4SS3TEThxKCFwxVJxx93RCIK64UI54IXHswhts5EVNMtV2fRRLSiuE2uWVCR9b8fHjC3CFA8DesrSPGEOaixa1B14yGMGrrOvAKKlzb0qSkPCIRuU/cSWm9oESOuLMYVkY1FpTOz1ESE1taS/a1y8+JwIxGhPjEWG4tEFJIxTA0ZNPYJMtTYGInooSxFIuI8T8OHYoEVo3gaVnhQ4jkwNokerQ+/5qDO/hFleMGcQQgokkLbFKw9V01E6y0wEcG4Y0M6s6iJKGKXiahkPBIRemky1UqneBo+FAusGMXTsMKDEE+00jBdAa2Oe1fVCFJY+Y0cBKcoHKMw6czb3aySQuOcbFm0ieiBtXUyd1eT6p5Ey8a2xS0SETLJZDtoALq8K5oRiajOmkhEuvcAQwRePSHZqlOdzgwp8jBvN1PObopntmo0t49D8TSsv3TFE3MPSxp6BVMWkB0Fn5GDMZUFQosu0qvmVqjux1rLUjs5TUQwYOSCieg+W0xEG2kicvtb0C9l/5hfETURtQffAqV4upHnd/EEKJ7xRHz+no54on2IkHsPrKkVjOMg9qmJ2xP7QYvgQG2PXLewUrXw0IVry4LzQ4sKTlIEJ7DaRHQsGolo4Z5mQZqsfTXhtLaUiajFJhNRv1UmItxTOhIRBBQt0KauoUBveYpnoDjzdmcUT8OqNRVPtC6RHQXTJDCudDDSk3KL03nKyqQzOKqyrKDLjyYiJ53UPjsjEd2yuEqly0JLJ9sLurdpIkpMXacz21zeKejCfW5HU6DOc4pnYvZcM06A4jnOIqVPJuKJ+ZmYQ4a5fU9vaVDz6YIaS0IEIoyBwkSEOYw2mog2lXWoUIPoqs7UeFVKleiysU5nhnFoxBQOKxIRxsOj3foNMqUoYoWJCPWGc0FWH2siEY2ZiFBfaIEGYSKieLr8YfCr4whQPI9D4u+LVMUTD0O0MtEyRJD3Q5FeCTpWbc6YiNbUytxdzTQRJbnV4MS2KRIRAnjYaiJCyreVxW2BiDpatP9cU5ukdri60AlQPA3vgFTEc9wc1CD3rKyRyuZ+FU3G8NCexbSJ6Mq55VabiDBeteJgW+DjVZ5wUlyJObRoxeNlB/GF0XOQbRfuhEhE2kQ0ckww9pftxRmJCK1yjLWrqEhhnIzj4tG1jrnRENC2nvS72WFsQ7J5LiTgRYDi6UXHY51f8cTDNmYOWhc1B2XyAYznmDYRXb+wUk14R0ouWxacnzYRIZk20prZuqCe6jsHZeGeFmUiKo70qCAQ2T5ffQ9hHvCdy6uVwSyI7kmT68C5IKwghh1siUSEewrCjpfUIHQc14iXFi4k4EWA4ulFx2OdH/FU5qBmhzmorkfQFZfpZaKJKGKniWhwVJq7h6yYP+hVH3gg17UPKPNQa08wY2pex0u0DvdSaUN0TvAdy8fSmYUYieiIjkS0tEq5qYMau090/fyeBGwjQPE0rJFk4qnNQXDABm0O8nvKbiYiiAGX1AiAWVf/sIrihFZJWIs2ESHsoT0mogaZsj6iYi2HbSIKql5auocELwdcSMCLAMXTi47HOi/xxEMOXXwxc1B9rxov89hdxlbBRITUW7ZGIsrYhefpjrWJCEnSN5Z1SFtPsHMcU8GG1rCNJqJUrsFt2z013fLMtka3VfyOBGIEKJ4xFKl9SCSeeKDoyEHj5qAQmysiKuQfIhHBRITpImEkgU6NLrf2IqBNRJH2ARUwwGvbTK9zmoiQzgxj2OHe7elfMaeqpM+wEPZA8TSsZTfxxFjjgboeFacWzj/TyEGGp5SwGB5mGJNCnka0FBChhUtuE8C9hi5kG4RKm4gQ9AM9HEEZd8KqIYpnWORz67gUT8P6ihdPjHFCONHaREonjJlkwxzk9/TxsMW8UrSM6ST0S43b+SWAKStwdWOaR5jjwn7P12u7sMQTzxCMt3LJDQIUT8N6coon5lbuqe5WsWpn7WiS0sbUg7wbngaLkYA1BCCaeEnL9SUs8cQL9zNbG2T5wTYVHKNvkD1ENt9LFE/D2tHiuWR/i0olBkctwu4hbq2NqbcML5PFSKDgCIQlnohs9KeZpfK3WWUybWNE1pd2qIAq+eJizrcbieJpWKNaPB9cW6uSWGOsJ5MJeg1Pk8VIgARSJBCmeP5+eon89JGD6ufiZ0pV4PvtlZ2qOxcufg65pFiZGdyc4mkIV4vnb54qkcc31kukI/fHegxRsBgJ5BUBW8TzZ1MOyrmPFstvniyRSUuqZHN5hyAhOBc7CFA8DeoBsTRXH2qT3z9dIr94tFjwtohYrTc8X8kfMuA9kOP3wCXPHpELHzuU9XpEd+25U4tjLU/dAv35lIPyy8cPy19nlcmUojrlr8AUIS7hEqB4GvDXkV4Q2HzRvhb+kAHvAd4Dad8DyORy4eOHXMSzWH795GG5dUmVLN7forIRUTsNHtwBF6F4BgyUuyMBEiABEwIwDDnHPM+bWiz/N71Ublx0VPkqEOgE8ZUpnCZ0gy9D8QyeKfdIAiRAAikTgHj+YXqJGuf89ROH5fI55fLYxnoV3ARGIXbUpow0owUonhnFy52TAAmQgD8CEM8/ziiVP804IpgvjghlSN9Hh60/ftneiuKZbeI8HgmQAAm4EKhu65eVxW1yuL5XJYlHNDAu9hKgeNpbNzwzEiCBAiIAIyLGNOmkzY1Kp3jmRj3xLEmABEiABCwiQPG0qDJ4KiRAAiRAArlBgOKZG/XEsyQBEiABErCIAMXTosrgqZAACZAACeQGAYpnbtQTz5IESIAESMAiAhRPiyqDp0ICJEACJJAbBCieuVFPPEsSIAESIAGLCFA8LaoMngoJkAAJkEBuEKB4xtXTsWPHpLu7W55//nm54oor5Ec/+pF8+ctfVj+/+tWvZMqUKVJcXBxXir+SAAnkC4HBwUGprKxUf+s/+MEP5Pe//70sWbLEistbunSpOh/9TEr0P55TjY2NsXN+/PHH5bzzzos9y3S5//mf/5ELL7xQJk+eLJs2bZKurq5YGf2hrq5ObrnlluPKYh/f/OY3Bc/Fu+66S/bu3Ss9PT26WN7/T/F0VPHo6Kh0dHTII488It/5znfkne98p5x88slywgknqJ/Xv/718slPflL+/Oc/y759+6S/v99Rmh9JgARynUBzc7NAoPA3jr/1V7ziFfLhD39YHnjgASsu7cEHH5R///d/jz2T9LMp/v+///3vUlVVFTtn/P6Od7zjuHIvetGL5NRTT1XX+L3vfU8gskePHo2Vwwc0Fn7yk58cVxbHfMlLXiJ4LoLR+eefL/Pnz5f29vYJ5dP5Zc+ePYr9jTfeKBUVFTIwMJDO7gItS/F04IRwLl++XD772c/K6aefLmeeeab813/9l+CmwhvWRz7yEXnd614nb3rTm+Svf/2rqszhYWZ2dyDkRxLISQLocTpy5Ig88cQT8vOf/1ze//73K5F6+ctfLh/4wAfknnvuseK67rvvPnU+EPUvfOEL8q1vfUu+//3vH/fz1FNPCV4E9PKnP/1JzjjjDPVcO/vss9UzDeW+8Y1vqP28+93vlhe+8IXy+c9/Xp599lnp7e3VRVVD4ZxzzpGXvexl8i//8i+qYaGP+d///d/ysY99TD0XX/nKVyoBRQs2qAXX8YlPfELe+MY3yqpVq6SzszOoXae9H4rnGEK0Og8cOKC6aV/1qlfJhz70IdVVgbcw/GGh0qZPn67E9MQTT5SXvvSlMm/evEDfstKuTe6ABEjAiMDIyIjcdNNN8tGPflQJ57nnnqt6oN72trdZKZ7oFVuzZo1rN6sbAC2eaAzs3LlT8LzD0tbWJps3b5Zrr71WCSCebRdffLF6kdD7QS8bxBMC9r//+7/S19enV0lDQ4PMnj1bifBrX/taee973yu33nprbH26H6ZOnapatW94wxtk0aJFVj1vKZ5jtQtxnDVrlhLFF7zgBeoPqaamRvBHhQUCim5adN/gJkJ3xfXXXz/hJkv3RmF5EiCBcAgMDQ3Jxz/+cfnud78rc+bMkUgkolo6//qv/5rX4onnGq4dXaK//vWvVcsUrVnnGK+XeOqhrpUrV6oGB7qBf/aznwVWiRTPwFBmbkcQyrvvvlt1XaCbBq1K3FTxC9720GWBmwRvY1u2bInfhL+TAAnkGAGIwIoVK2T79u3S0tKiWnRr166Vd73rXXktnrqampqaBOOK6NpFV+7ChQv1qli3rVvLExuBHcY5P/e5z6lxUZgs4xeYl9ByvPrqq1WX8Ve+8hX5+te/Lj/96U/lzjvvFIxtwqiJBaajuXPnqi5gdJ+jOxg9fRjr/dKXviQo+5e//EVKSkpijRuUq62tVd3uaGV/+9vfVtvhZQhDbBjHbm1tjT+ttH5ny3MMH7psL730Unnxi18sP/7xj2Xr1q2uYFFh11xzjaB7AxW5evVq1+34JQmQQG4RgBlF9zTBdVpI4omWNlzF6B6FWRJioxevlie2gTu5tLRUjU2edNJJyr2ry+J/PFvh5v3a176mXkYwjgyzEZ6heogMZiMcE3UAIUZDBi8u8UYo/TvGe7dt2xZr4KARc/nllysBf8tb3qLEFttinBYvBBibhRG0vLzceWppfaZ4juFDRVx00UWqOxZvNQcPHnQFC9v2/fffr1qon/nMZ9TbquuG/JIESCBnCdgunhA5jFM++eST8txzz034geMV3bDOJdGYJ8Yvq6urVUsP3davfvWrVfftrl27YsW9xBNDWYcPH1atVpiJ0FK87bbbYmXxAQYktGZhSvrUpz4lmB4DEya6h7/4xS8qty9al3AEowcQLU+0UiHmZ511lpxyyilKBPG8xX5Q9qqrrlJDZnjZQRkI59vf/nb1g33C4InttKEJog4j6NNPPx3YLAmK51g1Uzwn3O/8hQQKmoDt4qlbYG7/Q4gefvjhCfWnxRMtNsxhh7jCDIkeNrQKIThoCb75zW9WjQPnfE0tnqeddpoaqkLvG8rq8pMmTRKsg/D+5je/kR07dkw4NrpgcXx0C2M2A0xKWODoRTc5WqSvec1r1L6LioomlPUz5onpNegyhonqb3/7mzJE6S5gdEfj5eLf/u3fBC3eP/zhD+plYcJBDH+heI6Bo3ga3kEsRgJ5SCBfxRNGR4gc5nbiBw5ZiC2+hxBDfCCWMBLpRYsnprKgGxTT9ZzlMRce6+BQXrduXawrVZdHVyx4QpDRxaudvjgGxpchvhA+jIEuWLBAF1P/+xFPGJ3e+ta3qpYmxj1xDH3+OBam7OAY6AZGlzTMTUEsFM8xihTPIG4n7oME8oOA7eIJ8w6mhMAZDGes8wfGJ3TFOhfd8oxvqWLMEV2t8HkgKhGGq5ytTuxDi2d8Wf075pxiCsyyZctUkBnncfVnzKFHKxddur/73e+U0KEM5pxiegu6VdEChVHTufgRT3T/wlAEJtjfV7/6VXU+2D9+/vM//1MdQ59n/DGcx0vlM8VzjBbFM5XbhtuSQH4TsF08Ted5ovUF8cI0uxtuuEE5XREYAuYotALdgr5o8UQLFWOQMEyi7CWXXKJC9mFMEhGGHn30UTX+GH9nwIyEcc8f/vCHqvsUAWjQgtXiq/83FU8IpN5Hsv/RunU6iePPNZXfKZ5jtDBxGDcV3LYXXHCB6jd3Awm31s0336zGB/BGg6krXEiABPKLQL6KJ4TGGSTBT61p8YyfqoLpJwgcg9Yepu4h1i1adfEh9GD+QesQXcNoZWJ8FcYfTCPB/x/84AdVGNR0xBP7RvhB7NPrB8/u3bt3+7nspNtQPMcQ6akqGDRHuCnYpnW/uZMiQk8hwDJuFoTxwoA3FxIggfwiQPEcr89E4okt0B2LZyVak3h2ojXqjKmLufKXXXaZGlfFFBLM6YSTV4fZ09NSEIzCVDxRDoajX/7yl64t5/ErCfYTxXOMJ8JMwaGGZj9an/jsjO+osaOLA5ZovOngLSbIeUP6GPyfBEggXAIUz3H+XuKJBgZMOpjmh+kzGG9EuD69IKg8Ig5BXBEQAe5XCKpumAQhnpiSAictumSdUeH0OWTqf4rnGFk4tBB4GDcAWpXoinjsscfUOAAqGo4tOMEQVQiD7JjTtH79+glxHjNVSdwvCZBAdglQPMd5e4kntgIrGJdgPELSDGSkwVQRPDcxnQXDYDD0IF44ghnAkISuXQRWeOihh9R4aTLDEFzBGGfF/nA8iLA+BoL2I/oQnsl//OMfBdNd0CLGgnmoaAljigzmgsa7ecevMvVPFE8HM+Tww0RdzHWCHRtzhxAkGXk9/+///k+9VaGC0MWACcrOfHmO3fAjCZBAjhHAlAY8WDGl4corr1Qh3TAsg4c2Um6hRYXv8YMHPh78YSw6q4qpYSjIMU99/TAZocWH3KdghWPAgIkABhA4zO9EgH0YjuDqRRAaPGchqp/+9KfV95jq4tZtizmpCKoA8UV2ld/+9reqaxjdv2VlZeoYGMNEyxfCjV5BtEThLkZdYeoNprJgH1gXH8BBX4PJ/xRPBzUdLQOZAzCpFn84aIWiKxf/Q1DxhgNBxRuQW+xbx+74kQRIIEcIQAAwwR8vzl6OTSSNQJQcZ+D0bF4iElOgBYcXePR86WAAyc4B8V0hHhAoxJHVcy2TlcN6TF+B6IENhAjPSbcFCbHhukVscITX08Yh9OhhPBKGHoggGGLYC89XRB1CrFo8W93EEy8pSMSNsnDooiy6aGE0QvJt1BuiJKGrGDF1kUYS+8XQG+oR47AQbYTog5cFvYlBLRTPOJK4qfBGg8qHQwyVgQm4cInhjQZvnWihciEBEsgfAmgloVsPD1j8vSf6QQsKQcfDctnPmDFDCQfybqI71ZkezKs2br/9dpWrEzFk8XzTY45eZfQ6PO/QYEBycPS4aVHU6/X/MAL96le/UtNZYBzS54b/EXUILUHkRIaIw2GLgAVolW7YsEGF0UNLH3NF4xeE/0M4PkyTQVnUEfaFUKn6JQDHAA+0SLHf973vfaoO3/Oe96ghOLw8YIoKygS1UDxdSOJtBv3yiMKPrlmYifA/wkrBRKSDR7sU5VckQAI5SgAOUHgb8Pfu9YPnAjwSYSwQCRwf5+k03iQ7F7RQUQYGHTzfUlnwvMMYIspjvDGR8OJ8sH+MR4Kl3g7/Y50eqwRbbIPrwHmBJT6jrJsw43x1WTyH9Xk4n8P6GNgf9uV8bmP+Ks4HLWZnmVQYuG1L8XSjwu9IgARIgARIwIMAxdMDDleRAAmQAAmQgBsBiqcbFX5HAiRAAiRAAh4EKJ4ecLiKBEiABEiABNwIUDzdqPA7EiABEiABEvAgQPH0gMNVJEACJEACJOBGgOLpRoXfkQAJkAAJkIAHAYqnBxyuIgESIAESIAE3AhRPNyr8jgRIgARIgAQ8CFA8PeBwFQmQAAmQAAm4EaB4ulHhdyRAAiRAAiTgQYDi6QGHq0iABEiABEjAjQDF040KvyMBEiABEiABDwIUTw84XEUCJEACJEACbgQonm5U+B0JkAAJkAAJeBCgeHrA4SoSIAESIAEScCPw/xR1xEVsIskIAAAAAElFTkSuQmCC;" vertex="1" parent="1">
          <mxGeometry x="858.01" y="609.49" width="126.99" height="99.01" as="geometry" />
        </mxCell>
        <mxCell id="6XLEAazFI10cdfCFDWLp-36" value="Model evaluation" style="text;html=1;strokeColor=none;fillColor=none;align=center;verticalAlign=middle;whiteSpace=wrap;rounded=0;" vertex="1" parent="1">
          <mxGeometry x="453.57" y="710" width="150" height="20" as="geometry" />
        </mxCell>
        <mxCell id="6XLEAazFI10cdfCFDWLp-37" value="Model evaluation" style="text;html=1;strokeColor=none;fillColor=none;align=center;verticalAlign=middle;whiteSpace=wrap;rounded=0;" vertex="1" parent="1">
          <mxGeometry x="829.4300000000001" y="710" width="150" height="20" as="geometry" />
        </mxCell>
        <mxCell id="6XLEAazFI10cdfCFDWLp-38" value="" style="shape=image;html=1;verticalAlign=top;verticalLabelPosition=bottom;labelBackgroundColor=#ffffff;imageAspect=0;aspect=fixed;image=https://cdn3.iconfinder.com/data/icons/money-and-financial-1/32/balance_scale_compare_weight_justice-128.png;fillColor=#ffffff;" vertex="1" parent="1">
          <mxGeometry x="680" y="619" width="80" height="80" as="geometry" />
        </mxCell>
        <mxCell id="6XLEAazFI10cdfCFDWLp-39" value="Compare" style="text;html=1;strokeColor=none;fillColor=none;align=center;verticalAlign=middle;whiteSpace=wrap;rounded=0;" vertex="1" parent="1">
          <mxGeometry x="661.51" y="710" width="110" height="20" as="geometry" />
        </mxCell>
        <mxCell id="6XLEAazFI10cdfCFDWLp-40" value="" style="html=1;shadow=0;dashed=0;align=center;verticalAlign=middle;shape=mxgraph.arrows2.arrow;dy=0.6;dx=40;notch=15;fillColor=#dae8fc;strokeColor=#6c8ebf;rotation=-180;" vertex="1" parent="1">
          <mxGeometry x="765.57" y="649" width="80" height="20" as="geometry" />
        </mxCell>
        <mxCell id="6XLEAazFI10cdfCFDWLp-41" value="" style="html=1;shadow=0;dashed=0;align=center;verticalAlign=middle;shape=mxgraph.arrows2.arrow;dy=0.6;dx=40;notch=15;fillColor=#dae8fc;strokeColor=#6c8ebf;" vertex="1" parent="1">
          <mxGeometry x="598.26" y="649" width="80" height="20" as="geometry" />
        </mxCell>
        <mxCell id="6XLEAazFI10cdfCFDWLp-42" value="" style="shape=image;html=1;verticalAlign=top;verticalLabelPosition=bottom;labelBackgroundColor=#ffffff;imageAspect=0;aspect=fixed;image=https://cdn1.iconfinder.com/data/icons/music-106/32/2_Stop-128.png;fillColor=#ffffff;" vertex="1" parent="1">
          <mxGeometry x="670.9399999999999" y="820" width="80" height="80" as="geometry" />
        </mxCell>
        <mxCell id="6XLEAazFI10cdfCFDWLp-43" value="" style="html=1;shadow=0;dashed=0;align=center;verticalAlign=middle;shape=mxgraph.arrows2.arrow;dy=0.6;dx=40;notch=15;fillColor=#dae8fc;strokeColor=#6c8ebf;rotation=90;" vertex="1" parent="1">
          <mxGeometry x="666.7" y="764.81" width="88.49" height="21.62" as="geometry" />
        </mxCell>
        <mxCell id="6XLEAazFI10cdfCFDWLp-44" value="End" style="text;html=1;strokeColor=none;fillColor=none;align=center;verticalAlign=middle;whiteSpace=wrap;rounded=0;" vertex="1" parent="1">
          <mxGeometry x="690.94" y="910" width="40" height="20" as="geometry" />
        </mxCell>
        <mxCell id="6XLEAazFI10cdfCFDWLp-46" value="" style="aspect=fixed;html=1;points=[];align=center;image;fontSize=12;image=img/lib/mscae/Data_Lake.svg;fillColor=#ffffff;" vertex="1" parent="1">
          <mxGeometry x="289.44" y="147.01999999999998" width="58.49" height="76.96" as="geometry" />
        </mxCell>
        <mxCell id="6XLEAazFI10cdfCFDWLp-47" value="" style="shape=image;html=1;verticalAlign=top;verticalLabelPosition=bottom;labelBackgroundColor=#ffffff;imageAspect=0;aspect=fixed;image=https://cdn3.iconfinder.com/data/icons/infographic-vol-2-1/512/28-128.png;fillColor=#ffffff;" vertex="1" parent="1">
          <mxGeometry x="666.7000000000002" y="361" width="109" height="109" as="geometry" />
        </mxCell>
        <mxCell id="6XLEAazFI10cdfCFDWLp-48" value="Supervised method" style="text;html=1;strokeColor=none;fillColor=none;align=center;verticalAlign=middle;whiteSpace=wrap;rounded=0;" vertex="1" parent="1">
          <mxGeometry x="655" y="470" width="130" height="20" as="geometry" />
        </mxCell>
        <mxCell id="6XLEAazFI10cdfCFDWLp-49" value="Unsupervised method" style="text;html=1;strokeColor=none;fillColor=none;align=center;verticalAlign=middle;whiteSpace=wrap;rounded=0;rotation=-65;" vertex="1" parent="1">
          <mxGeometry x="570" y="405" width="220" height="20" as="geometry" />
        </mxCell>
        <mxCell id="6XLEAazFI10cdfCFDWLp-50" value="Semi-supervised method" style="text;html=1;strokeColor=none;fillColor=none;align=center;verticalAlign=middle;whiteSpace=wrap;rounded=0;rotation=65;" vertex="1" parent="1">
          <mxGeometry x="655" y="405.5" width="211.51" height="20" as="geometry" />
        </mxCell>
      </root>
    </mxGraphModel>
  </diagram>
</mxfile>
